<?xml version="1.0" standalone="no"?>
<!DOCTYPE svg PUBLIC "-//W3C//DTD SVG 20010904//EN"
 "http://www.w3.org/TR/2001/REC-SVG-20010904/DTD/svg10.dtd">
<svg version="1.0" xmlns="http://www.w3.org/2000/svg"
 width="884.000000pt" height="884.000000pt" viewBox="0 0 884.000000 884.000000"
 preserveAspectRatio="xMidYMid meet">
<metadata>
Created by potrace 1.14, written by Peter Selinger 2001-2017
</metadata>
<g transform="translate(0.000000,884.000000) scale(0.100000,-0.100000)"
fill="#000000" stroke="none">
<path d="M0 4757 c0 -3721 1 -4087 16 -4116 9 -18 18 -67 21 -110 5 -65 2 -85
-16 -125 -19 -44 -21 -67 -21 -227 l0 -179 1628 4 c895 2 1638 4 1652 4 14 0
138 -2 275 -4 222 -5 254 -3 282 12 30 16 35 16 76 0 38 -14 94 -16 446 -16
222 1 402 3 400 5 -2 2 -85 30 -184 63 -303 101 -873 297 -1005 347 -69 26
-172 64 -230 85 -58 21 -126 47 -151 58 -41 18 -54 19 -136 10 -84 -10 -97 -9
-165 12 l-73 23 40 8 c68 13 138 9 195 -11 30 -11 60 -19 65 -19 21 0 -30 22
-113 49 -48 15 -159 56 -247 90 -88 33 -233 88 -323 122 -90 33 -161 62 -159
65 3 2 78 -23 168 -56 347 -127 478 -174 579 -208 58 -19 159 -58 225 -85 149
-63 514 -195 700 -255 77 -25 266 -89 420 -143 392 -137 471 -160 541 -159
l59 1 -55 18 c-30 10 -118 37 -195 60 -158 46 -717 229 -725 237 -13 14 125
-25 440 -122 409 -125 690 -201 713 -192 8 3 21 41 32 89 32 151 98 292 206
435 17 24 38 43 45 43 8 0 14 6 14 13 0 14 31 47 43 47 4 0 7 -12 7 -26 0 -14
4 -23 10 -19 6 3 10 20 10 37 0 24 11 42 49 79 26 27 55 49 63 49 19 0 118
-307 132 -412 7 -50 15 -78 23 -78 19 0 33 -34 40 -101 4 -44 3 -63 -7 -69 -9
-6 -9 -13 -1 -28 6 -11 11 -30 11 -41 0 -21 4 -21 260 -21 143 0 260 3 260 6
0 4 -25 44 -55 89 -58 85 -100 184 -85 199 4 4 29 -4 54 -19 62 -36 58 -18 -4
23 -37 24 -50 38 -50 56 0 43 17 38 83 -24 36 -33 67 -60 71 -60 14 0 4 41
-11 47 -30 11 -365 352 -442 448 -39 50 -80 100 -91 111 -45 49 -190 255 -218
310 -22 43 -39 136 -47 259 -3 43 -10 84 -15 89 -13 13 -13 146 0 146 18 0
154 -49 235 -85 79 -35 125 -44 125 -25 0 5 -26 17 -57 26 -86 25 -183 71
-183 87 0 8 14 58 30 112 17 54 30 110 30 125 0 40 57 187 94 240 l31 45 5
-30 6 -30 7 29 c6 21 11 26 19 18 9 -9 8 -34 -1 -99 -31 -220 -34 -257 -23
-318 7 -33 9 -71 5 -84 -4 -16 -2 -22 5 -18 5 4 26 -15 46 -42 20 -27 52 -59
71 -70 25 -15 35 -27 35 -46 0 -14 -4 -25 -10 -25 -6 0 -6 -9 0 -25 6 -15 6
-26 0 -30 -9 -6 -247 100 -306 136 -35 21 -44 23 -44 10 0 -5 31 -25 68 -44
l68 -36 -7 -58 c-13 -102 -11 -116 10 -110 17 4 21 -4 32 -59 7 -35 15 -61 19
-59 4 2 1 32 -6 67 -6 35 -15 91 -18 126 -9 77 2 84 70 49 27 -14 63 -28 81
-31 31 -7 31 -8 35 -78 2 -51 -1 -72 -10 -75 -10 -4 -10 -8 2 -17 18 -15 30
-143 13 -150 -8 -3 -6 -8 6 -16 12 -8 16 -18 12 -31 -4 -10 -2 -19 4 -19 17 0
44 -98 36 -137 -3 -20 -6 -84 -7 -144 0 -128 -11 -108 160 -284 122 -125 109
-99 -21 41 -92 100 -97 121 -83 324 6 82 4 118 -8 164 -9 33 -14 61 -12 63 8
8 141 -20 148 -31 10 -15 31 7 35 36 3 21 2 21 -9 5 -12 -16 -20 -16 -98 -4
l-85 13 -12 99 c-6 55 -12 124 -12 154 -1 45 2 52 15 47 9 -3 28 -9 42 -12 36
-9 20 8 -21 22 -31 11 -32 13 -31 65 4 184 6 263 11 333 l6 79 28 -34 27 -33
-4 -144 c-3 -79 -1 -149 4 -156 5 -6 17 -49 26 -96 9 -46 19 -86 22 -89 7 -7
-3 91 -16 158 -13 70 -13 68 12 74 16 5 19 9 11 19 -6 7 -14 42 -17 78 l-7 65
21 -37 c18 -33 27 -76 35 -168 1 -19 -3 -47 -10 -62 -10 -20 -10 -25 0 -22 23
9 35 96 23 170 -5 38 -14 77 -19 87 -8 13 -6 17 8 18 15 0 15 2 -3 9 -22 9
-61 60 -45 60 21 0 71 -36 71 -52 0 -9 4 -18 10 -20 5 -2 16 -50 25 -108 16
-116 29 -196 44 -284 8 -48 8 -61 -4 -73 -8 -8 -15 -19 -15 -26 0 -6 6 -2 14
8 13 18 14 18 19 -1 3 -10 8 -46 12 -79 3 -33 8 -68 11 -77 3 -10 0 -18 -7
-18 -15 0 -38 -30 -39 -51 0 -9 7 -22 16 -30 13 -11 14 -9 9 13 -5 19 -2 27
11 32 22 9 23 7 34 -50 23 -128 51 -264 64 -309 8 -27 28 -97 45 -153 17 -57
39 -123 51 -146 26 -56 25 -74 -5 -88 l-26 -12 50 -50 c36 -37 57 -71 77 -124
l28 -72 1009 0 1009 0 -6 27 c-11 61 -17 153 -11 172 13 41 23 9 30 -94 l7
-105 64 0 64 0 0 105 c0 83 -4 115 -21 157 -12 29 -25 63 -30 76 l-9 24 27
-22 28 -22 3 2263 2 2262 -27 46 c-41 72 -97 143 -137 177 -20 17 -36 34 -36
38 0 3 17 6 38 6 50 0 96 -30 132 -87 l30 -47 0 31 c0 65 -86 130 -182 137
-47 3 -58 8 -98 48 -33 32 -54 66 -74 119 -73 189 -167 389 -182 389 -2 0 8
-26 23 -57 14 -32 41 -98 60 -148 19 -49 43 -112 54 -138 26 -63 19 -70 -14
-15 -29 50 -84 105 -94 95 -4 -4 -1 -13 5 -19 27 -27 8 -25 -55 5 -155 75
-167 87 -62 62 35 -8 71 -15 79 -14 30 0 -41 30 -117 48 -92 22 -203 62 -203
72 0 4 42 33 93 65 50 32 124 90 162 129 58 58 80 91 132 195 97 193 149 373
160 555 3 50 10 95 15 101 13 17 -25 175 -78 322 -90 250 -193 459 -308 626
-35 50 -102 168 -150 262 -63 123 -104 190 -144 236 -65 73 -161 159 -212 189
l-34 21 26 -33 c14 -19 29 -34 34 -34 29 0 174 -148 160 -163 -4 -3 -38 27
-76 67 -39 40 -70 70 -70 65 0 -5 -39 30 -87 76 -146 142 -164 152 -42 24 125
-131 183 -203 244 -303 33 -53 41 -61 43 -42 2 12 -6 40 -17 61 -26 51 -13 51
32 1 39 -44 322 -598 366 -719 35 -94 106 -355 120 -437 21 -122 33 -349 29
-512 -3 -106 -1 -155 4 -133 5 19 12 112 16 205 l7 170 29 -70 c44 -108 46
-179 7 -295 -67 -199 -176 -374 -295 -473 -72 -59 -194 -142 -201 -135 -3 2
38 65 91 139 115 160 181 270 217 362 37 92 33 97 -7 11 -74 -158 -277 -451
-399 -575 -72 -75 -125 -109 -212 -139 -63 -22 -88 -37 -80 -51 6 -8 -116 -49
-125 -42 -5 5 22 30 135 123 158 129 394 371 450 460 14 22 -23 -18 -69 -76
-66 -82 -223 -233 -380 -364 -213 -179 -184 -163 -262 -149 -108 19 -243 7
-357 -31 -54 -18 -100 -30 -103 -27 -10 9 105 207 235 407 9 13 11 21 4 17
-17 -11 -140 -196 -222 -334 -74 -126 -118 -173 -163 -173 -17 0 -47 -23 -104
-80 -43 -44 -80 -84 -82 -90 -2 -5 -8 -10 -13 -10 -17 0 454 690 527 774 40
45 163 169 275 276 372 355 521 504 603 602 81 96 135 178 118 178 -5 0 -14
-12 -20 -26 -7 -14 -38 -58 -69 -97 -68 -87 -984 -1001 -973 -970 5 11 25 53
45 93 53 106 106 227 210 485 83 205 160 386 238 558 15 31 24 57 21 57 -14 0
-181 -370 -299 -659 -76 -189 -188 -440 -248 -556 -23 -44 -148 -240 -279
-435 -206 -307 -246 -361 -296 -399 -31 -24 -48 -41 -37 -37 11 4 -9 -22 -45
-58 -35 -37 -61 -66 -56 -66 16 0 135 123 129 134 -4 8 -3 8 5 1 9 -8 -5 -45
-52 -137 -63 -124 -78 -173 -91 -290 -5 -46 -17 -73 -66 -150 -70 -107 -173
-309 -214 -416 -15 -41 -32 -71 -39 -69 -6 2 -12 25 -14 52 -4 54 32 169 75
243 36 64 23 61 -16 -3 -70 -116 -106 -239 -82 -284 20 -36 3 -42 -42 -15 -66
42 -79 55 -66 71 9 10 6 13 -18 13 -22 0 -33 7 -41 25 -11 23 -9 27 14 35 14
6 30 10 35 10 6 0 9 6 6 13 -2 6 -11 10 -18 8 -8 -2 -23 -6 -33 -9 -17 -5 -18
-1 -13 44 12 106 14 110 82 269 20 46 12 42 -22 -12 l-24 -38 5 70 c5 69 44
189 69 210 7 6 22 31 35 56 56 112 479 609 518 609 19 0 54 51 119 170 62 114
122 201 182 266 21 23 51 61 67 84 15 23 76 102 135 177 123 157 135 173 128
173 -2 0 -30 -30 -60 -67 -31 -38 -77 -90 -102 -118 l-47 -50 66 128 c36 70
90 158 119 194 29 37 44 64 35 60 -24 -9 -23 -1 15 68 18 33 84 155 146 270
63 116 119 217 126 225 7 8 51 89 97 180 46 91 124 230 173 310 150 246 176
291 231 403 64 130 55 133 -15 4 -64 -118 -86 -149 -96 -140 -4 5 -5 2 -1 -4
4 -7 1 -22 -7 -34 -13 -18 -14 -16 -10 28 2 26 9 72 14 102 14 84 11 250 -7
342 -14 76 -68 218 -79 208 -2 -3 7 -38 20 -78 30 -88 32 -112 4 -52 -31 70
-145 207 -209 253 -69 50 -74 37 -8 -23 71 -63 137 -145 180 -220 27 -47 54
-118 50 -133 -2 -5 5 -17 14 -27 13 -14 16 -38 15 -116 -1 -90 -18 -253 -27
-253 -2 0 -22 20 -44 44 -23 24 -65 61 -95 82 -30 20 -55 38 -55 40 0 1 32 -6
72 -17 40 -10 74 -17 76 -15 12 13 -251 86 -385 107 -43 7 -83 19 -89 26 -8 9
-30 13 -65 12 -30 -1 -128 1 -219 4 -91 3 -148 3 -127 1 34 -5 54 -24 23 -24
-7 0 -57 -13 -111 -30 -54 -16 -99 -30 -100 -30 -2 0 -13 16 -25 36 -18 28
-20 40 -13 57 6 12 17 38 25 57 24 53 248 339 317 402 102 95 259 151 422 152
84 1 88 0 141 -37 30 -20 71 -54 91 -73 20 -20 41 -34 48 -32 17 6 -141 150
-194 176 -43 21 -100 36 -187 48 -28 4 -56 -5 -135 -44 -85 -42 -111 -61 -175
-128 -41 -44 -95 -106 -119 -139 -25 -33 -48 -64 -52 -69 -8 -9 121 289 144
334 14 27 11 26 179 96 64 27 115 50 113 52 -7 8 -134 -31 -194 -59 -35 -16
-65 -28 -67 -26 -2 2 23 73 55 158 72 190 75 199 61 199 -12 0 -12 0 -84 -185
-30 -77 -80 -196 -111 -265 -69 -152 -245 -510 -251 -510 -6 0 36 95 169 380
64 139 247 564 247 574 0 4 -220 6 -490 6 l-490 0 -14 -22 c-7 -13 -17 -36
-20 -51 -5 -20 -11 -27 -22 -23 -8 3 -26 -1 -39 -10 -14 -9 -32 -14 -40 -10
-17 6 -124 -149 -151 -221 -15 -39 -16 -51 -5 -87 7 -22 15 -53 18 -68 6 -31
4 -32 -86 -28 l-54 2 7 -27 c7 -27 6 -28 -28 -22 -19 3 -54 15 -78 26 l-43 21
40 -5 c52 -6 17 10 -43 20 -35 6 -54 18 -95 60 -67 69 -104 79 -257 72 -82 -4
-141 -13 -204 -32 -103 -30 -233 -82 -242 -97 -3 -5 7 -3 22 5 52 26 247 86
314 97 84 13 215 13 263 -1 42 -11 123 -78 110 -89 -4 -4 -33 -4 -63 0 -92 14
-319 11 -445 -6 -66 -8 -146 -17 -179 -19 -32 -2 -68 -10 -80 -18 -11 -8 -79
-33 -151 -57 -71 -23 -155 -55 -185 -70 -30 -15 -64 -31 -74 -34 -15 -5 -65
39 -243 216 -124 123 -234 237 -245 253 -18 26 -16 25 22 -10 24 -22 53 -49
64 -60 12 -11 30 -26 41 -34 11 -7 -59 64 -155 158 l-175 171 -199 0 -199 0 6
-207 c3 -115 11 -251 17 -303 30 -251 135 -638 205 -754 l36 -60 -24 -55 c-14
-31 -30 -81 -37 -111 -7 -30 -17 -63 -22 -72 -5 -12 -5 -18 2 -18 15 0 12 -86
-4 -149 -19 -70 -29 -78 -25 -19 2 26 1 44 -2 40 -14 -15 -58 -151 -79 -247
-26 -114 -31 -127 -47 -117 -23 15 41 253 108 399 47 102 37 101 -14 -2 -40
-82 -72 -176 -97 -295 -11 -46 -26 -90 -34 -96 -32 -23 -48 -108 -25 -131 14
-14 -18 -242 -72 -513 -47 -239 -85 -479 -99 -625 -12 -136 -13 -387 0 -480 5
-38 12 -97 16 -130 8 -85 14 -109 24 -99 5 5 6 60 2 124 -4 71 -8 104 -12 85
-5 -24 -8 -16 -15 40 -11 95 1 434 20 575 31 228 118 702 137 748 l11 27 8
-40 c21 -103 28 -174 34 -345 4 -102 9 -205 11 -230 1 -25 3 -77 3 -117 l1
-72 71 -35 c58 -29 66 -36 44 -36 -28 0 -28 0 -9 -21 31 -36 98 -61 129 -49
34 13 35 13 35 -4 0 -8 -10 -16 -22 -18 -29 -4 -34 -25 -8 -33 15 -5 26 -1 34
11 12 16 18 8 56 -67 72 -140 80 -158 80 -171 0 -8 5 -6 11 5 8 14 2 32 -28
85 -95 166 -124 258 -96 302 41 63 78 60 68 -6 -7 -46 11 -127 46 -212 28 -68
43 -68 17 0 -23 60 -36 182 -21 191 6 4 22 -3 37 -14 28 -22 82 -107 73 -115
-3 -3 -8 4 -12 15 -3 12 -11 21 -16 21 -13 0 -11 -77 2 -86 7 -4 8 -20 4 -41
-4 -24 -3 -33 4 -28 6 3 11 19 11 35 0 40 37 38 45 -2 4 -15 10 -30 15 -33 25
-16 -47 171 -85 221 -14 18 -25 40 -25 49 0 21 -43 60 -105 96 -56 32 -87 36
-127 15 -30 -16 -36 -9 -15 13 10 11 9 13 -6 8 -15 -6 -25 7 -57 76 -67 144
-85 217 -84 347 1 170 46 406 84 439 22 20 40 73 34 98 -5 17 65 193 87 219 5
6 10 20 12 31 1 11 18 44 37 73 45 69 57 90 69 118 12 24 27 31 17 7 -8 -22 0
-19 41 19 58 52 160 102 243 120 41 8 138 20 214 26 76 5 142 13 145 16 10 11
-248 -5 -331 -19 -43 -8 -78 -13 -78 -11 0 2 17 13 38 24 l37 21 -45 -7 c-53
-7 -163 -34 -170 -41 -3 -3 14 -2 38 2 23 4 42 4 42 2 0 -9 -125 -76 -209
-112 -45 -19 -98 -45 -118 -59 -66 -45 -49 -17 37 64 47 44 80 79 74 80 -6 0
-41 -27 -78 -61 -36 -33 -66 -56 -66 -49 0 34 102 190 162 247 18 17 53 43 78
57 57 33 45 34 -18 2 -72 -37 -223 -219 -254 -307 -13 -37 -25 -38 -23 -1 15
216 36 310 96 422 63 116 159 225 278 313 56 41 208 117 235 117 9 0 -20 -32
-65 -71 -44 -39 -78 -74 -75 -76 3 -3 23 10 44 29 57 52 148 110 227 147 38
18 72 36 75 40 8 13 91 53 97 47 3 -2 -12 -14 -34 -26 l-38 -21 35 7 c19 3 75
17 124 31 63 18 105 24 145 21 92 -7 214 -75 271 -153 15 -19 14 -19 -10 -4
-39 24 -147 64 -243 89 -85 22 -100 39 -35 40 15 0 30 5 34 11 8 14 -42 6
-126 -18 l-55 -17 59 -8 c104 -14 248 -61 354 -114 56 -29 102 -50 102 -48 0
3 -17 28 -39 57 -54 73 -141 150 -187 166 -117 39 -126 40 -220 21 -49 -10
-96 -21 -106 -25 -11 -5 -16 -1 -15 12 3 25 62 68 125 88 78 26 239 17 352
-20 47 -15 117 -36 155 -45 39 -10 85 -23 102 -28 54 -17 37 -3 -34 29 -92 41
-96 43 -95 54 2 15 75 18 120 5 49 -13 168 -91 243 -158 31 -28 86 -91 123
-139 66 -88 185 -308 191 -354 1 -13 25 -87 53 -164 55 -154 86 -259 113 -380
10 -44 25 -104 33 -132 18 -64 53 -314 61 -438 13 -209 16 -231 31 -210 11 15
18 17 36 8 30 -15 118 -23 143 -13 12 4 -8 9 -57 13 -42 3 -86 10 -97 17 -25
13 -28 40 -3 40 11 0 13 3 5 8 -7 4 -14 49 -18 112 -16 242 -79 587 -141 765
-86 245 -118 344 -114 347 3 2 73 1 155 -2 141 -6 153 -8 191 -34 22 -14 50
-40 63 -56 12 -17 30 -30 41 -30 11 0 24 -9 30 -21 10 -18 2 -30 -72 -106 -46
-47 -68 -76 -50 -63 17 13 32 27 32 32 0 4 8 8 18 8 9 0 32 21 51 45 18 25 39
45 46 45 26 0 153 -314 186 -458 9 -40 2 -108 -17 -187 -4 -16 -3 -17 4 -5 6
8 13 34 17 58 8 51 20 54 29 6 5 -24 1 -51 -10 -82 -29 -77 -122 -224 -174
-274 -27 -27 -45 -48 -40 -48 4 0 29 21 55 47 55 54 122 154 156 232 27 65 37
52 38 -50 2 -164 -105 -348 -221 -380 -26 -7 -82 -9 -142 -7 -85 4 -95 3 -75
-8 15 -8 59 -13 115 -14 105 0 156 20 236 94 40 37 52 57 77 130 l28 86 7 -43
c3 -23 9 -92 12 -152 l7 -111 -42 4 c-33 3 -58 -4 -128 -39 -49 -23 -115 -48
-148 -55 -34 -7 -48 -12 -32 -13 15 -1 27 -6 27 -11 0 -6 7 -7 18 -1 46 23 92
40 92 33 0 -4 -20 -30 -45 -59 -25 -28 -45 -54 -45 -58 0 -4 -9 -20 -21 -37
-12 -16 -19 -31 -16 -34 2 -3 21 19 42 48 106 148 178 208 249 208 78 0 113
-40 190 -222 53 -124 80 -227 70 -272 -17 -80 -110 -214 -253 -365 -39 -41
-69 -77 -66 -80 3 -2 22 3 41 13 l37 17 -7 -23 c-3 -13 -6 -50 -6 -83 0 -56
-3 -64 -45 -115 -49 -59 -76 -79 -54 -39 17 33 24 233 10 287 -22 79 -92 93
-90 18 0 -27 1 -29 9 -10 11 28 30 40 40 24 4 -6 13 -35 19 -65 10 -46 10 -58
-6 -94 -10 -22 -21 -41 -25 -41 -3 0 -9 34 -13 76 -6 64 -10 74 -24 68 -9 -4
-29 -9 -44 -12 -25 -4 -28 -8 -26 -46 3 -101 38 -215 79 -256 l21 -21 -38 -51
c-21 -29 -45 -62 -53 -74 -41 -62 -154 -204 -158 -199 -12 11 -79 871 -89
1135 -7 200 -20 200 -22 0 0 -74 -6 -314 -12 -533 -8 -303 -8 -447 1 -605 17
-289 14 -377 -16 -490 -13 -52 -24 -107 -24 -123 l0 -29 -89 0 c-50 0 -92 4
-95 9 -3 5 -11 56 -17 113 -6 56 -17 114 -24 128 -7 14 -20 69 -30 123 -10 53
-20 97 -22 97 -3 0 -3 -19 1 -42 5 -32 4 -39 -5 -28 -8 12 -9 11 -5 -5 26 -97
76 -338 76 -367 0 -11 -32 -10 -68 3 -36 12 -27 -21 -131 494 -105 518 -157
841 -171 1045 -6 96 -15 216 -20 265 -5 62 -5 94 3 103 7 9 7 16 0 20 -5 4
-13 28 -16 53 -5 38 -3 48 14 63 12 10 18 24 15 32 -3 9 -7 23 -7 32 -1 9 -4
2 -8 -16 -11 -59 -26 -39 -33 43 -3 44 -13 211 -22 370 -29 529 -37 660 -42
664 -7 7 -2 -417 6 -539 11 -155 39 -519 44 -563 4 -34 1 -40 -27 -58 -35 -21
-82 -25 -92 -8 -4 6 4 22 16 36 24 25 24 26 2 12 -13 -8 -23 -17 -23 -21 0 -9
-52 -11 -74 -2 -19 7 -21 24 -3 24 8 0 14 7 14 15 0 12 -6 12 -33 -5 -32 -18
-37 -18 -106 -3 -102 21 -255 19 -343 -6 -93 -26 -96 -18 -4 11 59 18 97 23
189 23 111 0 113 0 50 9 -107 16 -228 -5 -330 -56 -64 -32 -95 -41 -127 -40
-55 2 -54 -5 2 -19 l45 -11 -35 -27 c-19 -14 -34 -32 -35 -38 0 -12 -45 -18
-92 -14 -10 1 -18 -3 -18 -10 0 -8 14 -10 48 -6 l47 7 -24 -20 c-31 -26 -25
-25 53 10 75 33 82 26 38 -36 -45 -63 -47 -68 -20 -50 14 9 44 39 67 66 38 45
103 90 130 90 6 0 -1 -11 -14 -24 -38 -38 -59 -126 -50 -210 4 -39 8 -81 9
-93 1 -15 4 -19 11 -12 6 6 9 48 7 98 -3 67 0 96 12 120 25 47 76 101 96 101
46 0 121 -133 135 -241 6 -42 -4 -131 -20 -171 -4 -10 -3 -18 3 -18 20 0 35
90 30 183 -4 73 -10 103 -31 142 -30 60 -83 113 -123 124 l-29 9 32 7 c18 4
30 11 27 16 -10 16 135 9 227 -11 153 -34 179 -57 179 -155 0 -33 -4 -76 -10
-95 -9 -32 -8 -33 5 -16 8 11 15 24 15 30 0 5 2 7 5 4 3 -3 1 -17 -4 -32 -6
-14 -9 -26 -6 -26 6 0 69 100 78 122 3 9 19 25 34 34 15 10 38 27 50 38 13 10
25 17 28 15 2 -3 12 -89 21 -192 14 -155 15 -210 5 -320 -42 -509 -82 -966
-92 -1042 -11 -92 -14 -127 -17 -169 -2 -19 -10 -26 -46 -35 -69 -17 -76 -12
-21 14 38 18 43 23 20 19 l-30 -6 25 21 c14 11 21 21 15 21 -5 0 -3 5 5 10 10
7 11 10 2 10 -7 0 -54 -21 -105 -46 -155 -78 -427 -194 -511 -218 -45 -13
-107 -26 -139 -29 l-57 -6 -21 42 c-34 67 -122 169 -187 215 -44 33 -69 60
-98 112 -30 54 -47 73 -77 87 -67 30 -94 62 -102 123 -10 81 -34 127 -109 210
-71 80 -171 222 -179 255 -4 18 -5 18 -6 -3 -2 -47 63 -144 185 -274 67 -71
66 -70 88 -168 8 -36 17 -74 21 -85 8 -25 -62 -118 -106 -141 -16 -8 -29 -13
-29 -12 0 2 -35 -30 -79 -72 -90 -87 -155 -164 -149 -181 2 -6 21 11 43 37 66
82 181 189 226 209 41 19 42 19 78 -2 20 -11 114 -64 209 -118 95 -54 185
-110 201 -125 15 -16 45 -60 65 -100 33 -63 37 -75 26 -95 -18 -33 -4 -65 48
-112 l47 -43 -45 0 c-25 0 -55 6 -66 13 -65 37 -137 95 -201 160 -65 68 -80
78 -158 106 -140 50 -140 50 -274 -84 -63 -63 -112 -118 -108 -122 4 -3 20 6
35 20 35 34 55 34 120 1 42 -21 55 -24 67 -14 8 6 19 9 24 5 15 -9 66 20 90
51 12 15 21 41 21 58 0 18 6 40 13 50 11 15 15 16 48 2 35 -15 112 -83 160
-141 61 -75 148 -125 218 -125 27 0 52 -4 55 -8 3 -4 2 -42 -1 -84 l-6 -76
-103 85 c-57 46 -107 90 -111 97 -16 27 -55 37 -130 35 l-77 -2 -34 39 c-18
21 -30 30 -26 19 4 -11 16 -30 26 -41 19 -21 19 -21 -9 -27 -15 -3 -75 -11
-133 -18 -58 -6 -109 -16 -114 -20 -14 -13 20 -11 137 7 56 8 149 16 207 17
l106 2 85 -75 c47 -41 107 -92 132 -113 50 -41 62 -82 32 -107 -8 -7 -15 -18
-15 -25 0 -7 -16 -33 -35 -58 -20 -26 -49 -75 -65 -109 -32 -68 -33 -67 -30
50 1 52 -3 71 -26 110 -32 55 -45 42 -14 -15 18 -33 20 -48 14 -118 -4 -44
-12 -83 -18 -87 -7 -5 -4 -8 7 -8 9 0 17 -4 17 -10 0 -5 11 -26 25 -46 15 -22
25 -51 25 -72 0 -32 -11 -46 -102 -134 -57 -55 -115 -106 -130 -113 -24 -13
-29 -13 -43 2 -27 26 4 103 42 103 7 0 13 4 13 9 0 14 -59 -11 -66 -29 -4 -8
-10 -45 -13 -81 -6 -64 -5 -66 16 -60 30 8 174 130 250 211 23 25 44 42 47 39
6 -6 -7 -149 -24 -259 -6 -42 -5 -59 6 -71 8 -8 14 -20 14 -26 0 -18 -204
-208 -243 -226 -67 -32 -106 -27 -179 26 -36 25 -81 66 -99 89 -50 65 -53 67
-26 13 20 -41 39 -59 102 -100 l76 -50 -46 -3 c-35 -2 -59 3 -98 24 -29 14
-42 24 -29 21 22 -5 21 -4 -10 53 -36 66 -51 72 -23 10 10 -22 16 -43 12 -46
-10 -10 -28 36 -32 79 -9 88 -74 307 -100 333 -5 6 -28 36 -49 67 -32 46 -41
71 -53 143 -7 48 -25 115 -38 149 -29 73 -30 76 -9 68 15 -5 15 -3 0 26 -9 17
-30 53 -46 78 -37 57 -37 80 -4 171 27 76 28 118 2 68 l-15 -30 -25 40 c-66
105 -98 164 -98 180 0 16 88 141 133 189 28 30 124 177 136 208 16 40 4 33
-19 -13 -20 -38 -129 -188 -176 -240 -12 -14 -34 -38 -48 -55 l-26 -30 6 100
c4 55 10 116 14 135 8 34 8 34 9 5 1 -17 5 -25 10 -20 5 6 5 53 1 110 -5 55
-9 330 -10 610 -2 281 -6 553 -10 605 l-7 95 -3 -90 c-4 -133 -15 -242 -22
-225 -12 27 -38 353 -49 608 -6 136 -13 249 -16 252 -12 12 7 -483 26 -675 11
-115 21 -237 21 -270 0 -68 -27 -202 -66 -332 -14 -48 -39 -146 -54 -218 -23
-109 -62 -265 -86 -350 -4 -13 -3 -17 4 -10 5 6 20 46 32 90 12 44 35 125 52
180 17 55 32 119 34 141 2 23 22 116 46 205 43 164 43 164 46 106 2 -32 -4
-82 -12 -110 -8 -28 -13 -53 -11 -56 3 -2 7 4 10 13 16 49 20 44 26 -39 9
-118 10 -579 1 -677 l-7 -76 -101 -104 c-81 -83 -108 -119 -142 -188 -45 -93
-48 -89 -33 42 10 97 -4 84 -17 -14 -21 -153 -25 -280 -12 -358 21 -128 106
-312 178 -386 30 -32 104 -90 132 -104 25 -13 90 -31 90 -25 0 2 -28 19 -62
37 -72 37 -176 136 -201 189 -17 36 -16 38 64 365 45 181 84 336 86 344 3 8
11 -5 18 -31 17 -63 62 -159 87 -186 12 -13 19 -30 16 -41 -10 -35 11 -124 42
-184 41 -78 38 -103 -12 -102 -21 1 -35 -3 -32 -7 3 -5 15 -9 27 -9 12 0 29
-5 37 -10 24 -17 -62 -90 -105 -90 -37 0 -48 10 -71 66 l-16 39 21 -19 c28
-25 27 -9 -4 60 -14 31 -25 63 -25 70 0 8 -5 22 -11 32 -14 22 8 99 47 171 13
24 22 46 19 49 -8 9 -34 -28 -68 -98 -32 -65 -32 -66 -32 -220 0 -133 3 -160
18 -183 28 -43 76 -69 116 -63 39 6 107 39 138 68 26 24 30 19 37 -48 6 -61
-32 -137 -114 -227 l-25 -27 -90 46 c-139 72 -251 151 -341 239 -65 64 -85 89
-94 125 -17 64 -7 245 19 354 12 48 20 90 18 93 -3 2 -20 -56 -37 -129 -42
-172 -46 -289 -11 -361 44 -89 183 -201 394 -317 53 -29 97 -57 97 -62 0 -27
-47 -92 -110 -152 -40 -37 -70 -69 -67 -72 7 -8 119 81 177 140 56 58 74 65
104 43 17 -12 3 -24 -135 -124 -149 -108 -225 -173 -201 -173 6 0 26 13 44 28
l31 29 24 -46 c21 -41 80 -97 91 -86 3 3 -13 22 -35 43 -40 39 -66 91 -54 108
7 11 257 194 264 194 3 0 -1 -20 -10 -45 -12 -36 -14 -70 -9 -158 3 -62 10
-222 15 -357 9 -266 17 -308 73 -403 54 -91 168 -216 199 -217 9 0 23 -8 31
-17 47 -53 172 -362 166 -408 -3 -22 -103 192 -133 285 -25 78 -29 81 -37 25
-17 -130 -10 -187 36 -312 25 -65 42 -120 40 -123 -6 -6 -30 24 -93 116 -63
93 -67 125 -36 245 35 135 30 152 -10 29 -50 -155 -45 -195 37 -316 32 -48 35
-57 47 -187 7 -75 17 -151 22 -169 5 -18 37 -60 71 -95 34 -35 57 -63 50 -63
-7 0 -63 20 -125 44 -62 24 -159 61 -217 81 -58 21 -143 55 -190 77 -47 22
-141 62 -210 90 -69 27 -211 92 -315 144 l-191 94 -99 6 c-55 3 -235 1 -400
-5 -862 -31 -910 -33 -932 -47 -12 -8 -28 -14 -35 -14 -7 0 -30 -9 -52 -20
l-38 -21 -46 22 c-52 25 -63 36 -55 55 7 18 -31 36 -45 22 -13 -13 -57 13
-153 94 -35 30 -78 64 -96 76 -38 27 -38 27 -58 165 -9 59 -18 114 -22 122 -3
9 1 15 11 15 9 0 16 -5 16 -11 0 -8 4 -8 13 -1 14 12 112 20 366 30 l183 7 33
38 c18 21 46 57 61 80 55 81 299 393 381 484 123 139 135 162 163 331 4 29 11
189 15 355 3 166 13 361 20 432 19 170 44 742 65 1455 6 184 19 486 30 670 10
184 22 405 25 490 3 85 10 211 16 280 5 69 13 190 19 268 l10 144 -56 171
c-89 273 -110 334 -158 464 -112 302 -124 346 -131 498 -6 125 2 513 21 1028
l7 177 -736 0 -737 0 0 -4083z m6666 3962 c49 -23 84 -72 84 -115 -1 -28 -2
-27 -14 9 -26 71 -76 107 -148 107 -31 0 -39 3 -28 10 24 15 60 12 106 -11z
m-902 -53 c-12 -9 -15 -21 -11 -42 3 -20 -4 -47 -28 -94 -18 -36 -38 -84 -45
-107 -20 -65 -40 -51 -40 27 0 64 105 250 132 234 5 -3 2 -12 -8 -18z m896
-15 c22 -23 42 -57 50 -86 11 -41 11 -54 -5 -103 -34 -111 -73 -164 -133 -181
-75 -22 -173 43 -171 112 l1 32 10 -32 c24 -74 120 -124 179 -93 23 13 23 13
4 21 -11 4 -14 8 -8 8 19 1 81 65 92 94 6 16 6 38 0 60 -8 28 -19 40 -64 63
-64 32 -73 55 -20 50 19 -2 42 -9 50 -16 12 -10 19 -10 27 -2 9 9 9 12 0 12
-7 0 -12 6 -12 13 0 16 -57 44 -92 46 -18 0 -31 -6 -38 -19 -10 -18 -40 -29
-40 -14 0 18 26 48 53 59 53 23 77 18 117 -24z m-108 -99 c11 -9 29 -24 38
-33 9 -9 29 -19 42 -22 27 -7 43 -31 32 -48 -3 -6 -16 -3 -31 6 -33 22 -39 13
-19 -29 9 -19 16 -37 16 -41 0 -13 -34 -34 -55 -35 -28 0 -65 28 -59 44 6 15
-21 40 -35 32 -5 -4 -12 3 -16 14 -10 33 -24 13 -16 -23 14 -61 40 -86 106
-100 11 -3 4 -5 -16 -6 -62 -2 -109 58 -109 139 0 54 28 70 62 35 30 -32 62
-34 52 -2 -6 21 -6 22 14 4 20 -19 37 -11 23 11 -12 19 -85 41 -104 30 -20
-11 -21 -7 -5 27 13 29 41 28 80 -3z m-26 -59 c-7 -7 -26 7 -26 19 0 6 6 6 15
-2 9 -7 13 -15 11 -17z m-2946 7 c0 -5 -4 -10 -9 -10 -6 0 -13 5 -16 10 -3 6
1 10 9 10 9 0 16 -4 16 -10z m-40 -23 c0 -2 -10 -12 -21 -23 -22 -19 -22 -19
-10 4 10 18 31 31 31 19z m124 -28 c30 -11 65 -29 78 -39 22 -18 22 -19 5 -37
-14 -15 -21 -16 -37 -5 -29 18 -32 15 -25 -19 6 -25 2 -36 -21 -60 -15 -16
-24 -32 -20 -36 4 -5 16 2 25 14 16 19 20 20 38 8 22 -16 37 -55 21 -55 -5 0
-16 -7 -24 -15 -21 -20 -92 -19 -131 3 -45 24 -85 88 -89 142 l-4 45 13 -50
c7 -27 20 -60 28 -73 19 -31 80 -62 121 -62 34 1 77 25 65 37 -4 4 -13 1 -19
-5 -17 -17 -89 -15 -115 3 -19 13 -21 22 -16 65 4 41 2 50 -10 50 -24 0 -30
18 -17 51 14 32 40 40 40 12 0 -33 16 -46 44 -39 l27 7 -31 30 c-28 28 -32 49
-10 49 5 0 34 -9 64 -21z m3436 -38 c0 -4 -19 -11 -42 -15 -24 -3 -54 -9 -68
-12 -14 -4 -22 -3 -18 1 8 8 92 33 116 34 6 1 12 -3 12 -8z m-3261 -83 c30
-25 40 -48 23 -48 -5 0 -19 11 -32 25 -31 33 -46 32 -59 -5 -5 -16 -17 -30
-25 -30 -12 0 -10 10 11 50 27 53 29 53 82 8z m1389 -353 c61 -28 67 -38 15
-23 -41 11 -93 35 -93 43 0 11 28 4 78 -20z m56 -59 c35 -14 77 -33 92 -43 16
-10 25 -12 21 -5 -11 17 -3 15 46 -9 92 -47 242 -163 231 -180 -3 -5 0 -8 8
-7 7 2 12 -3 10 -9 -1 -7 4 -13 10 -13 7 -1 35 -21 62 -45 27 -25 58 -47 68
-51 21 -6 22 -14 5 -46 l-12 -25 -71 46 c-39 25 -108 70 -155 100 -113 72
-300 198 -319 213 -28 23 -82 98 -71 98 6 0 40 -11 75 -24z m-2137 -58 c-3 -8
-6 -5 -6 6 -1 11 2 17 5 13 3 -3 4 -12 1 -19z m2183 -77 c0 -4 88 -65 195
-136 107 -71 194 -129 192 -129 -1 -1 -64 1 -140 4 l-137 5 -55 113 c-30 62
-64 127 -76 144 l-22 30 21 -11 c12 -7 22 -15 22 -20z m1088 -81 c24 -26 30
-130 8 -130 -8 0 -16 5 -18 10 -4 14 -381 -140 -423 -174 -36 -28 3 -17 83 23
121 60 358 144 330 116 -3 -3 -99 -44 -214 -90 -191 -78 -210 -84 -221 -68 -7
9 -13 23 -13 31 0 11 -8 13 -33 8 -30 -6 -33 -3 -49 31 -9 21 -14 42 -11 46
11 18 255 126 413 182 112 40 124 41 148 15z m632 -23 c15 -8 38 -37 58 -78
76 -151 80 -417 12 -799 -11 -63 -25 -149 -32 -190 l-11 -74 -17 62 c-48 176
-188 388 -338 513 -136 114 -169 152 -181 210 -23 108 -20 109 70 28 165 -149
332 -287 379 -314 17 -9 -12 28 -45 58 -11 10 -45 42 -75 71 -77 73 -305 273
-333 291 -13 8 -29 31 -36 51 -11 31 -11 38 2 52 14 14 22 12 74 -19 82 -48
226 -195 313 -321 74 -107 97 -130 64 -66 -66 129 -220 314 -314 377 -34 22
-66 41 -71 41 -5 0 -9 4 -9 8 0 8 118 48 290 97 88 25 149 25 200 2z m131 7
c100 -19 107 -22 163 -81 85 -88 121 -198 114 -342 -4 -81 -8 -93 -67 -211
-34 -68 -67 -142 -73 -162 -6 -21 -13 -37 -15 -35 -2 2 -5 35 -8 73 -11 155
-17 202 -35 309 -18 103 -76 312 -85 303 -2 -2 7 -46 20 -98 32 -124 62 -342
71 -505 l6 -130 -34 -65 c-120 -225 -162 -296 -152 -254 20 86 85 439 95 519
17 144 15 366 -4 445 -9 36 -18 82 -22 102 -3 20 -21 60 -40 89 -19 28 -35 53
-35 55 0 6 13 5 101 -12z m-600 -16 c-24 -12 -59 -37 -77 -55 -29 -29 -34 -31
-34 -14 0 27 34 57 84 75 62 22 77 19 27 -6z m908 -144 c35 -54 55 -136 42
-179 l-8 -30 -7 30 c-16 68 -49 172 -62 198 -23 44 2 31 35 -19z m785 -164
c82 -160 136 -284 189 -435 57 -159 69 -276 43 -420 l-12 -70 -48 96 c-41 84
-49 109 -62 210 -20 153 -47 282 -90 431 -31 107 -52 164 -128 353 l-17 40 26
-30 c14 -16 58 -95 99 -175z m-707 78 c-3 -8 -6 -5 -6 6 -1 11 2 17 5 13 3 -3
4 -12 1 -19z m-826 -464 c15 -23 26 -44 23 -47 -3 -3 1 -4 9 -3 17 1 106 -101
114 -133 10 -40 -5 -220 -27 -321 -11 -52 -23 -108 -26 -125 -8 -50 24 39 46
125 l19 75 0 -100 c1 -160 -26 -300 -80 -406 -19 -38 -89 -113 -174 -188 -27
-25 -60 -53 -72 -64 l-22 -20 9 32 c5 18 20 41 34 52 36 28 88 103 135 194 40
77 47 74 24 -10 -4 -15 -2 -17 7 -9 18 18 40 187 39 299 l-2 100 -13 -113
c-15 -130 -22 -157 -77 -270 -35 -74 -138 -206 -123 -160 3 10 13 57 23 105
26 127 26 818 0 1000 -9 67 -17 130 -17 140 1 20 102 -82 151 -153z m-3373
100 c-14 -15 -32 -24 -39 -22 -9 3 -1 13 21 26 46 29 50 28 18 -4z m-175 -63
c-3 -32 -2 -61 3 -64 9 -5 53 15 124 56 l32 19 -32 -47 c-37 -54 -83 -85 -124
-85 l-29 0 6 73 c5 64 14 107 22 107 2 0 1 -26 -2 -59z m47 -27 c-18 -21 -24
-10 -9 18 8 14 14 18 17 10 2 -7 -2 -19 -8 -28z m-33 -119 c32 6 35 4 28 -12
-4 -10 -16 -52 -27 -93 -11 -41 -22 -76 -23 -78 -7 -8 -85 44 -81 53 2 6 14
43 27 83 17 55 25 68 32 56 7 -12 17 -14 44 -9z m-87 -10 c0 -8 -4 -15 -10
-15 -5 0 -7 7 -4 15 4 8 8 15 10 15 2 0 4 -7 4 -15z m-27 -72 c-9 -26 -18 -43
-20 -37 -4 11 24 84 32 84 2 0 -3 -21 -12 -47z m-78 -102 c-4 -23 -10 -41 -13
-41 -16 0 -32 42 -26 68 10 41 15 45 31 29 11 -11 13 -26 8 -56z m96 4 c19
-11 48 -30 63 -42 27 -22 28 -25 15 -55 -7 -18 -15 -26 -17 -18 -3 9 -9 7 -21
-9 l-17 -22 -54 38 c-59 41 -70 66 -51 116 11 29 19 29 82 -8z m3829 -276 c-8
-19 -9 -8 -5 46 3 39 6 104 7 145 2 49 3 34 5 -46 2 -70 -1 -131 -7 -145z
m-5469 15 c39 -104 79 -207 90 -229 19 -35 20 -51 15 -150 -20 -336 -28 -478
-47 -743 -11 -162 -18 -297 -15 -300 3 -3 7 15 7 39 1 24 5 58 9 74 19 74 -1
-440 -35 -895 -8 -113 -15 -213 -15 -222 0 -26 -18 -22 -22 5 -2 12 -9 -169
-16 -403 -8 -234 -17 -450 -20 -480 l-7 -55 -100 -11 c-55 -6 -103 -9 -106 -5
-4 3 -1 139 7 301 7 162 18 408 24 545 6 138 20 367 30 510 30 400 49 732 60
1045 5 157 19 483 30 725 11 242 20 444 20 450 0 30 30 -35 91 -201z m1516
154 c-3 -7 -5 -2 -5 12 0 14 2 19 5 13 2 -7 2 -19 0 -25z m112 -47 l23 -18
-40 -79 c-22 -44 -47 -86 -56 -93 -13 -11 -16 -9 -22 14 -7 28 1 163 12 202 6
22 7 22 33 7 15 -9 38 -24 50 -33z m3931 -48 l21 -82 -36 -71 c-20 -40 -39
-70 -42 -67 -2 3 2 47 11 98 9 51 16 119 16 152 0 33 2 58 4 56 3 -2 14 -41
26 -86z m-4053 20 c-3 -10 -5 -4 -5 12 0 17 2 24 5 18 2 -7 2 -21 0 -30z m94
-273 c-14 -201 -5 -257 83 -474 39 -97 41 -93 -33 -70 -43 13 -13 -16 43 -42
58 -27 31 -35 -31 -9 -54 23 -54 8 2 -41 33 -30 44 -44 32 -44 -22 0 -89 34
-105 53 -8 9 -16 121 -24 341 l-12 328 25 44 c13 24 25 41 26 37 2 -5 -1 -60
-6 -123z m3839 -70 c0 -24 -35 -95 -51 -106 -7 -4 -9 -2 -6 7 3 8 14 38 23 67
18 53 34 68 34 32z m-1901 -261 c1 -23 -6 -29 -50 -48 -64 -26 -73 -26 -66 -1
3 11 0 20 -5 20 -6 0 -5 6 2 15 7 8 16 15 21 15 4 0 25 16 46 35 37 34 38 34
45 12 3 -12 6 -34 7 -48z m1761 -4 c-36 -96 -129 -262 -177 -317 -56 -65 -122
-168 -188 -296 -23 -44 -56 -89 -83 -113 -25 -21 -47 -38 -49 -36 -2 2 13 42
33 88 52 122 73 179 65 179 -3 0 -12 -9 -19 -21 -7 -12 -16 -19 -18 -16 -9 9
24 64 49 84 13 10 26 30 30 43 10 39 60 110 127 179 73 75 82 107 16 52 -38
-31 6 22 49 61 45 39 167 138 172 138 1 0 -2 -11 -7 -25z m-1820 -79 c0 -3 -4
-8 -10 -11 -5 -3 -10 -1 -10 4 0 6 5 11 10 11 6 0 10 -2 10 -4z m-35 -16 c-3
-5 -12 -10 -18 -10 -7 0 -6 4 3 10 19 12 23 12 15 0z m-1566 -184 c-2 -2 -15
-9 -29 -16 -23 -12 -24 -12 -11 3 7 10 20 17 29 17 8 0 13 -2 11 -4z m4702
-87 c46 -28 88 -55 94 -60 9 -9 -46 -12 -210 -14 -38 -1 -83 -4 -100 -8 l-30
-8 30 15 c17 8 46 19 65 24 31 9 29 10 -20 5 l-55 -6 35 38 c29 31 76 61 101
64 3 1 44 -22 90 -50z m-4796 -49 c7 -12 -22 -12 -50 0 -17 7 -15 9 12 9 17 1
35 -3 38 -9z m2490 -540 c31 -428 31 -419 -2 -493 l-28 -61 -8 39 c-13 65 -20
587 -11 833 10 260 5 293 49 -318z m2405 451 c19 -16 44 -46 55 -66 l20 -38
-44 -38 c-24 -22 -46 -39 -50 -39 -3 0 -14 22 -23 48 -21 60 -59 116 -79 120
-11 2 -20 -14 -32 -58 l-17 -60 -28 30 c-15 17 -56 46 -92 65 -36 19 -59 35
-52 36 6 1 33 3 60 5 26 2 67 7 92 12 25 5 70 10 100 11 47 1 60 -3 90 -28z
m112 -9 l57 -28 -34 -27 c-37 -29 -55 -34 -55 -14 0 7 -11 29 -25 49 -14 20
-25 39 -25 42 0 12 28 5 82 -22z m-394 -48 c58 -28 96 -72 106 -123 5 -27 3
-32 -10 -27 -9 3 -20 6 -25 6 -5 0 -8 5 -6 12 1 6 -10 12 -24 13 -30 2 -182
132 -172 148 8 13 71 -1 131 -29z m-118 -43 c36 -32 62 -62 58 -66 -3 -4 -32
-3 -63 0 -32 4 -52 11 -45 15 15 9 0 42 -38 83 l-26 27 25 0 c15 0 48 -22 89
-59z m-2674 -126 c4 -55 12 -103 18 -107 7 -5 11 -80 11 -235 -1 -143 2 -203
6 -161 4 37 11 82 15 100 l7 33 8 -31 c8 -27 46 -215 84 -414 7 -36 23 -109
35 -163 12 -55 19 -101 17 -103 -2 -3 -24 0 -48 5 -24 6 -70 11 -103 11 l-59
0 7 48 c4 26 9 99 11 162 l4 115 -14 -135 c-15 -159 -31 -265 -40 -280 -4 -6
-11 -50 -15 -98 -5 -48 -12 -105 -15 -127 -4 -26 -3 -35 3 -27 6 8 11 -31 15
-111 5 -104 3 -135 -12 -191 -10 -37 -26 -75 -35 -85 -10 -11 -16 -37 -17 -67
-1 -37 -3 -43 -8 -24 -16 54 -22 -18 -11 -122 17 -153 53 -282 102 -365 28
-47 6 -41 -35 10 -86 105 -108 187 -114 432 -5 189 10 480 42 825 8 85 33 373
55 640 22 267 46 521 52 565 11 77 12 79 19 40 5 -22 11 -85 15 -140z m1170
127 c-17 -16 -18 -16 -5 5 7 12 15 20 18 17 3 -2 -3 -12 -13 -22z m1403 -7
c36 -41 37 -45 14 -45 -10 0 -28 18 -41 40 -28 49 -14 52 27 5z m745 -5 c31
-35 45 -60 32 -60 -2 0 -23 9 -46 19 -34 15 -47 17 -62 8 -22 -14 -23 -36 -3
-84 8 -20 13 -38 11 -40 -2 -2 -34 11 -71 30 l-68 34 49 39 c26 21 59 51 73
65 14 15 31 27 37 28 7 0 28 -17 48 -39z m-821 -38 c-44 -4 -53 4 -25 24 12 8
22 23 22 32 0 9 8 1 19 -18 l19 -35 -35 -3z m506 -59 c1 -15 -4 -15 -48 -7
-26 5 -31 11 -31 34 0 15 7 45 16 66 l17 39 23 -60 c13 -33 23 -66 23 -72z
m406 -1 c-12 -12 -35 11 -35 35 l0 28 20 -30 c10 -16 17 -31 15 -33z m-2471
-119 c19 -26 20 -26 27 -4 9 22 24 27 34 11 3 -5 1 -10 -4 -10 -6 0 -11 -17
-11 -37 0 -85 -41 -82 -65 4 -9 32 -19 67 -21 78 -4 19 -4 19 8 1 7 -10 22
-30 32 -43z m2616 -18 c22 -27 5 -37 -19 -11 -19 20 -21 26 -9 26 9 0 21 -7
28 -15z m-752 -626 c76 -101 129 -199 108 -199 -8 0 -19 15 -25 33 -6 18 -24
49 -40 68 l-29 34 -83 -2 c-46 -1 -97 -6 -112 -12 -16 -6 -26 -7 -22 -2 9 16
107 33 163 30 29 -2 52 -3 52 -1 0 7 -89 118 -105 132 -9 7 -21 23 -27 34 -25
47 58 -32 120 -115z m-4212 -96 c17 -13 38 -23 47 -23 9 0 21 -9 27 -20 9 -17
7 -22 -12 -29 -13 -5 -26 -7 -31 -4 -4 2 -12 -9 -18 -26 -6 -17 -13 -31 -15
-31 -9 0 -109 72 -109 78 0 4 13 26 29 49 30 45 31 45 82 6z m3860 -23 c-180
-48 -321 -121 -475 -245 -84 -67 -97 -82 -217 -241 -101 -134 -183 -272 -224
-379 -48 -127 -133 -315 -141 -315 -13 0 -13 0 32 102 23 51 59 138 81 193 59
150 122 263 217 390 102 135 173 212 267 287 160 129 374 227 494 226 28 0 20
-4 -34 -18z m-3727 -137 c24 -29 38 -53 32 -53 -16 0 -131 59 -131 67 0 13 44
53 50 46 3 -5 26 -32 49 -60z m4300 -170 c59 -188 112 -398 121 -478 14 -123
33 -225 42 -225 4 0 8 12 9 28 0 22 8 13 36 -46 68 -140 88 -221 87 -362 0
-69 -5 -147 -9 -175 l-9 -50 -7 55 c-4 30 -7 90 -8 133 -1 83 -27 203 -61 283
-20 47 -21 47 -36 26 -22 -31 -68 -29 -99 4 -53 57 -101 195 -112 322 -9 101
12 65 26 -45 18 -145 64 -249 120 -273 42 -17 61 -7 61 30 0 26 -3 30 -18 26
-22 -7 -63 33 -86 84 -14 33 -15 34 -9 5 8 -43 41 -93 71 -109 25 -13 26 -15
8 -22 -28 -11 -80 53 -105 130 -29 86 -48 209 -33 214 13 4 -17 42 -34 42 -6
0 -19 9 -29 20 -36 39 -77 15 -89 -51 -7 -39 -44 -83 -75 -92 -31 -8 -79 20
-104 60 -31 50 -47 116 -47 196 0 83 14 121 48 134 27 11 27 11 3 12 -24 1
-24 1 -5 24 17 20 17 20 -8 -2 -37 -33 -50 -77 -50 -176 -1 -102 22 -174 73
-227 27 -29 44 -38 68 -38 45 0 96 52 112 113 13 53 32 65 22 15 -9 -49 -18
-69 -52 -115 -26 -35 -37 -43 -64 -43 -97 0 -177 132 -177 291 0 104 16 162
56 203 42 44 73 53 111 32 l28 -15 -42 -1 c-23 0 -44 -4 -48 -9 -3 -6 9 -8 29
-4 81 13 137 -37 138 -125 0 -43 1 -44 10 -19 5 15 14 27 18 27 5 0 2 -19 -7
-43 -15 -42 -15 -44 8 -80 24 -35 64 -66 74 -55 3 3 1 17 -5 32 -13 34 -13 91
0 135 10 37 5 55 -10 31 -9 -13 -10 -13 -10 0 1 23 25 50 45 50 12 0 15 5 10
18 -4 9 -10 40 -15 69 -7 44 -19 80 -65 208 -5 14 2 11 24 -12 22 -24 40 -65
70 -160z m-3263 132 c-27 -14 -51 -23 -53 -21 -5 4 78 45 92 45 6 0 -12 -11
-39 -24z m1259 4 c-4 -12 -7 -65 -6 -119 0 -77 -3 -101 -15 -111 -35 -29 -60
-116 -44 -154 8 -18 9 -17 9 6 1 38 21 91 44 116 l20 22 25 -67 c13 -37 27
-82 29 -101 4 -23 8 -29 14 -20 4 7 12 10 16 5 12 -11 17 -161 6 -181 -9 -16
-14 -12 -135 129 -14 17 -20 -2 -7 -23 11 -17 10 -26 -8 -58 -32 -58 -53 -140
-53 -208 0 -52 -4 -65 -25 -85 l-24 -23 -10 24 c-20 55 -33 183 -29 288 2 61
7 114 11 117 4 4 25 0 47 -9 56 -22 62 -1 6 23 -54 23 -58 40 -21 90 14 19 23
41 20 50 -7 23 24 108 79 218 44 87 65 118 51 71z m-2179 -60 c4 -8 1 -8 -14
0 -12 6 -24 16 -28 22 -4 8 -1 8 14 0 12 -6 24 -16 28 -22z m2201 -56 c-2 -16
-4 -5 -4 22 0 28 2 40 4 28 2 -13 2 -35 0 -50z m-1218 -168 c-10 -115 -21
-309 -25 -430 -5 -178 -10 -229 -25 -265 -25 -62 -81 -296 -77 -318 4 -14 63
157 83 240 9 35 25 27 25 -12 0 -47 -87 -283 -101 -274 -5 3 -11 -8 -14 -23
-4 -15 -8 -37 -10 -48 -3 -11 11 -50 31 -87 19 -38 30 -68 25 -68 -15 0 -89
104 -113 156 -11 25 -23 82 -28 127 l-9 82 3 -81 c3 -63 11 -97 37 -159 31
-76 32 -80 20 -134 -7 -31 -12 -63 -12 -71 1 -8 2 -28 2 -44 1 -24 3 -26 11
-13 5 9 13 17 18 17 11 0 52 -33 88 -70 31 -32 26 -57 -37 -185 -34 -68 -51
-118 -56 -158 -8 -69 -17 -66 -60 20 -42 85 -43 140 -6 243 16 46 28 86 27 88
-2 2 -19 -32 -37 -75 -47 -112 -46 -173 4 -275 42 -85 53 -130 43 -183 -8 -39
-74 -121 -87 -108 -4 4 -15 55 -24 113 -21 131 -49 196 -105 241 -80 64 -86
72 -125 193 -22 65 -41 113 -43 107 -8 -24 -21 -9 -45 52 -48 120 -77 233 -77
298 0 66 -25 136 -72 201 -15 22 -22 50 -26 104 -4 72 -4 75 27 106 18 18 33
47 37 67 3 20 8 44 11 55 3 12 1 16 -6 12 -6 -4 -11 -16 -11 -27 0 -11 -6 -32
-14 -47 -15 -28 -96 -112 -96 -99 0 13 42 91 74 137 51 73 53 74 72 43 71
-117 156 -213 189 -213 7 0 29 -13 49 -29 21 -17 57 -37 81 -46 l43 -17 -48
-63 c-63 -83 -93 -163 -88 -232 3 -29 1 -50 -3 -47 -15 9 -29 78 -30 144 -1
61 -1 63 -11 30 -23 -81 17 -202 94 -281 46 -48 125 -105 133 -98 2 3 -14 27
-35 54 -61 78 -80 216 -40 303 10 23 17 42 14 42 -10 0 -43 -87 -48 -130 -4
-25 0 -73 7 -107 8 -35 11 -63 7 -63 -3 0 -18 25 -34 56 -70 138 -18 274 171
444 46 41 97 87 113 101 16 15 46 53 66 85 l37 58 -16 47 c-26 73 -117 256
-117 236 0 -10 25 -77 56 -149 35 -82 54 -138 50 -152 -7 -30 -101 -131 -185
-200 l-71 -58 -53 22 c-138 59 -218 118 -261 191 l-19 33 29 -21 c16 -12 56
-49 89 -83 67 -68 104 -95 86 -62 -5 10 -17 25 -26 32 -30 25 -74 126 -91 211
-14 68 -16 118 -11 269 3 102 8 194 13 205 5 14 4 17 -4 10 -6 -5 -16 -57 -23
-114 -16 -140 -7 -345 19 -433 10 -38 16 -68 13 -68 -10 0 -87 82 -98 105 -20
42 -35 146 -31 220 3 69 6 80 31 101 31 27 34 39 10 53 -17 9 -16 14 11 65 15
31 39 67 51 80 13 14 20 28 15 31 -4 3 -20 -10 -35 -27 -14 -18 -35 -43 -46
-55 -11 -12 -21 -31 -22 -41 -2 -28 -16 -19 -67 44 -60 73 -62 84 -13 84 53 0
187 33 388 96 239 75 369 112 376 105 3 -3 -2 -100 -12 -216z m212 208 c16
-10 29 -20 29 -24 0 -4 15 -17 33 -28 17 -11 38 -25 46 -30 10 -7 3 -21 -32
-65 -26 -31 -52 -66 -58 -78 -7 -13 -14 -18 -16 -11 -3 7 1 22 7 33 7 12 13
36 16 53 2 18 6 46 9 62 6 31 -40 -80 -81 -200 l-25 -70 6 145 c6 165 13 230
27 230 6 0 23 -8 39 -17z m177 -5 c12 -12 17 -58 6 -58 -7 0 -64 39 -82 57
-11 11 -6 13 25 13 22 0 44 -5 51 -12z m85 -117 c50 -13 63 -20 65 -39 4 -26
5 -26 -46 -8 -45 16 -102 54 -102 68 0 5 5 6 11 3 5 -4 38 -14 72 -24z m-143
-58 c-28 -71 -45 -92 -36 -45 10 55 -13 27 -60 -72 -38 -81 -43 -87 -43 -57
-1 19 12 58 31 93 32 60 114 155 125 145 3 -4 -5 -32 -17 -64z m-1612 42 c29
-9 52 -21 52 -28 0 -15 -44 -107 -62 -128 -20 -24 -84 -31 -122 -12 -50 23
-45 61 17 129 27 30 52 54 56 54 4 0 31 -7 59 -15z m2042 -34 c6 -13 9 -26 6
-29 -3 -2 -49 -1 -103 4 -88 8 -98 11 -101 30 -3 20 1 21 92 20 90 -1 96 -2
106 -25z m-352 -97 c5 -96 -3 -103 -39 -32 -16 32 -20 52 -15 86 8 58 15 68
34 48 11 -11 17 -42 20 -102z m96 76 c39 -16 46 -24 46 -47 0 -15 11 -104 25
-198 14 -93 30 -201 35 -240 5 -38 16 -101 25 -139 20 -88 47 -323 43 -373 -2
-26 1 -37 10 -36 16 4 15 -5 -3 -23 -9 -9 -15 -34 -15 -60 0 -25 -7 -80 -16
-122 -18 -85 -93 -284 -110 -289 -6 -2 -16 7 -23 21 -12 22 -9 29 44 95 32 40
56 74 53 76 -2 3 -21 -17 -41 -43 -51 -67 -224 -233 -339 -325 -53 -43 -118
-101 -144 -130 -58 -64 -41 -29 24 50 68 83 163 210 199 268 41 65 133 254
133 272 0 7 13 42 29 77 59 130 148 473 127 493 -3 3 -6 -8 -6 -25 0 -17 -5
-34 -10 -37 -16 -10 -27 33 -34 135 -7 92 -75 499 -96 570 -17 58 -19 57 44
30z m-2404 -38 c0 -21 -48 -230 -78 -342 -11 -41 -39 -147 -62 -235 -23 -88
-44 -162 -46 -164 -8 -9 -37 78 -55 164 -34 166 -20 289 47 398 27 43 172 197
186 197 5 0 8 -8 8 -18z m2735 -21 c18 -16 47 -37 64 -47 32 -19 38 -29 21
-39 -12 -7 -180 -218 -229 -287 -26 -37 -32 -52 -26 -76 13 -62 162 -258 181
-239 4 3 -15 30 -41 59 -58 64 -125 165 -125 188 0 16 226 306 269 344 39 35
45 11 27 -126 -17 -133 -20 -254 -7 -331 7 -44 6 -51 -22 -85 -50 -62 -69
-115 -69 -200 -1 -67 4 -92 40 -187 56 -151 64 -188 65 -280 1 -60 -5 -99 -23
-155 l-25 -75 -2 55 c-4 80 -24 232 -34 255 -7 15 -8 11 -4 -15 3 -19 8 -57
11 -85 l4 -50 -15 55 c-14 53 -100 304 -110 320 -11 18 -155 592 -165 660 -32
214 -50 337 -50 356 0 19 4 20 116 17 112 -3 118 -4 149 -32z m-2305 -21 c0
-5 -7 -10 -16 -10 -8 0 -12 5 -9 10 3 6 10 10 16 10 5 0 9 -4 9 -10z m4580
-17 c-5 -16 -10 -37 -12 -48 -3 -16 -5 -17 -10 -4 -3 8 0 29 8 47 16 39 26 42
14 5z m-2755 -51 c26 -18 55 -67 55 -93 0 -35 -4 -36 -47 -3 -28 21 -33 31
-33 65 0 39 5 45 25 31z m871 -184 c27 -35 52 -64 56 -66 5 -2 8 -29 7 -60 0
-38 -3 -50 -8 -37 -15 37 -21 -72 -10 -180 10 -96 9 -108 -10 -152 l-21 -48
24 29 23 28 12 -82 c7 -45 10 -84 7 -87 -7 -7 -64 74 -96 137 -65 128 -109
315 -95 410 7 50 46 170 56 170 3 0 28 -28 55 -62z m-843 1 c8 -29 -7 -40 -31
-23 -14 10 -22 26 -22 45 l0 30 24 -18 c14 -10 27 -25 29 -34z m-2180 -11 c4
-10 4 -18 2 -18 -6 0 -35 56 -35 67 0 10 25 -27 33 -49z m2223 -137 c17 -24
46 -119 42 -137 -2 -14 -9 -12 -37 12 -40 33 -76 110 -86 180 l-7 49 38 -44
c22 -25 44 -52 50 -60z m-291 3 c-3 -24 -10 -44 -16 -44 -13 0 -11 35 3 84 15
49 23 25 13 -40z m924 -212 c37 -74 58 -104 191 -277 33 -44 62 -89 65 -100
21 -113 27 -132 54 -158 35 -32 59 -89 34 -80 -13 5 -15 1 -8 -23 4 -16 11
-56 15 -89 5 -33 14 -85 21 -116 12 -52 11 -61 -11 -115 -13 -32 -37 -86 -53
-119 -16 -33 -49 -107 -72 -164 l-43 -105 -20 34 c-41 67 -50 168 -27 299 3
14 -2 6 -11 -19 -8 -25 -16 -84 -16 -134 l-2 -89 -28 33 c-15 18 -34 48 -43
66 -8 18 -19 34 -23 36 -20 8 -57 76 -59 108 -1 19 -6 60 -11 90 -4 31 -3 100
2 155 11 110 0 227 -33 358 -26 105 -40 123 -22 29 12 -60 -2 -41 -34 48 -23
64 -26 85 -21 143 6 64 42 167 64 181 5 3 17 -24 27 -60 40 -147 124 -283 268
-431 93 -95 138 -118 69 -35 -64 76 -198 288 -252 396 -62 126 -100 257 -99
340 l0 61 20 -93 c12 -57 35 -124 58 -170z m-1735 141 l18 -38 -26 24 c-14 14
-26 30 -26 38 0 25 16 13 34 -24z m2066 -35 c0 -22 -50 -118 -62 -118 -4 0 5
34 19 75 25 70 43 89 43 43z m-282 -53 c7 -30 26 -87 43 -126 27 -67 28 -71 8
-53 -26 23 -80 107 -99 152 -11 27 -11 37 0 58 21 38 34 29 48 -31z m-652 -23
c22 -18 57 -119 45 -126 -14 -9 -30 10 -55 64 -37 79 -34 98 10 62z m-2357
-171 c12 -17 30 -33 41 -36 23 -7 85 23 129 64 40 38 43 38 39 4 -2 -22 -16
-34 -73 -65 -38 -21 -80 -38 -92 -38 -55 0 -104 82 -103 172 1 31 2 30 20 -19
10 -29 28 -66 39 -82z m1081 47 c0 -18 -2 -20 -9 -8 -6 8 -7 18 -5 22 9 14 14
9 14 -14z m-20 -24 c0 -8 -4 -12 -10 -9 -5 3 -10 13 -10 21 0 8 5 12 10 9 6
-3 10 -13 10 -21z m2371 -15 c-9 -22 -10 -22 -10 -3 -1 11 2 24 6 27 12 12 14
0 4 -24z m-5013 -24 c6 -26 -11 -32 -107 -40 -102 -9 -96 -9 -96 12 0 14 18
21 90 34 104 19 109 18 113 -6z m4003 -88 c6 -24 7 -48 1 -65 -9 -27 -9 -27
-20 13 -6 22 -14 60 -17 85 -6 42 -5 44 10 25 8 -11 20 -37 26 -58z m-3987 26
c3 -10 12 -63 20 -118 9 -55 27 -153 41 -217 34 -161 44 -308 21 -343 -9 -14
-25 -25 -36 -25 -12 0 -20 -7 -20 -17 -1 -18 -86 -121 -93 -113 -2 3 -9 46
-16 95 -26 201 -40 298 -46 303 -12 12 4 -139 36 -342 9 -53 8 -73 -2 -92 -7
-13 -15 -24 -19 -24 -4 0 -10 36 -13 80 -4 44 -13 117 -22 163 -8 45 -19 127
-24 182 -6 55 -20 165 -31 244 -16 102 -19 153 -13 175 8 25 12 4 22 -111 7
-79 19 -164 26 -190 17 -63 17 -36 1 157 -7 85 -11 160 -9 167 3 7 26 15 51
19 26 4 56 10 67 15 33 13 53 10 59 -8z m106 2 c0 -8 -4 -15 -10 -15 -5 0 -10
7 -10 15 0 8 5 15 10 15 6 0 10 -7 10 -15z m0 -65 c0 -15 -6 -30 -13 -33 -10
-4 -14 5 -13 33 0 27 4 36 13 33 7 -3 13 -18 13 -33z m1767 -103 c16 -23 23
-41 17 -45 -23 -16 -73 -113 -84 -164 -12 -51 -10 -63 18 -169 17 -63 45 -181
62 -264 17 -82 33 -161 36 -175 5 -20 3 -22 -5 -10 -12 16 -41 108 -90 280
-16 58 -34 116 -40 130 -10 23 -11 22 -5 -10 3 -19 14 -62 24 -95 11 -33 29
-98 40 -145 11 -47 31 -119 44 -160 13 -41 22 -77 19 -80 -2 -3 -24 18 -48 45
-73 82 -91 147 -105 375 -13 202 -8 254 26 307 9 15 10 24 3 29 -7 4 6 23 32
50 56 57 46 66 -14 13 -45 -39 -48 -40 -83 -29 -34 11 -34 13 -20 33 9 12 37
55 62 96 l47 73 19 -23 c10 -13 30 -41 45 -62z m2333 63 c0 -11 -4 -20 -9 -20
-5 0 -7 9 -4 20 3 11 7 20 9 20 2 0 4 -9 4 -20z m-4103 -107 c-2 -21 -4 -6 -4
32 0 39 2 55 4 38 2 -18 2 -50 0 -70z m4173 -72 c26 -74 38 -121 34 -137 -10
-38 -26 -24 -56 47 -21 50 -27 80 -28 138 0 41 2 72 5 70 2 -3 22 -56 45 -118z
m-350 24 c0 -2 -7 -23 -17 -46 -16 -41 -17 -41 -56 -35 -74 12 -75 21 -6 54
65 31 79 36 79 27z m-4147 -225 c3 -81 2 -109 -3 -80 -8 44 -13 217 -6 209 2
-2 6 -60 9 -129z m3007 17 c0 -18 -2 -19 -10 -7 -13 20 -13 43 0 35 6 -3 10
-16 10 -28z m1340 -67 c0 -3 10 -6 23 -7 12 -1 47 -5 77 -10 50 -7 55 -11 58
-35 2 -15 -6 -47 -16 -71 -19 -43 -19 -44 -1 -40 10 3 20 18 24 37 10 46 37
116 45 116 29 0 26 -139 -5 -230 -32 -95 -41 -111 -55 -90 -7 11 -10 0 -10
-39 l0 -53 -32 6 c-57 11 -118 38 -118 52 0 8 -8 14 -19 14 -10 0 -30 9 -45
21 -23 18 -26 27 -26 82 l0 62 21 -25 c17 -21 16 -16 -5 27 l-26 52 29 73 c15
40 31 82 35 93 7 19 8 19 26 -5 11 -14 20 -27 20 -30z m1096 -30 c12 0 116
-72 111 -77 -8 -7 -131 61 -179 99 -56 44 -46 56 12 14 28 -20 53 -36 56 -36z
m1769 28 c8 -18 31 -79 51 -136 20 -56 40 -105 45 -108 18 -10 10 -111 -11
-147 -11 -19 -36 -79 -54 -133 -40 -118 -73 -194 -110 -253 -45 -71 -40 -40
12 75 27 60 73 176 102 257 l54 149 -16 41 c-9 23 -35 84 -58 136 -23 52 -44
107 -47 122 -8 40 14 37 32 -3z m-4137 -178 c4 -73 3 -76 -32 -127 -20 -29
-36 -55 -36 -59 0 -12 -89 -142 -130 -187 -52 -59 -153 -132 -210 -152 -24 -8
-45 -14 -47 -12 -2 2 26 23 61 46 82 52 172 139 225 216 121 174 115 163 116
247 0 64 2 75 14 65 11 -10 12 -3 7 43 l-7 55 17 -30 c11 -18 19 -60 22 -105z
m1599 18 c-3 -7 -5 -2 -5 12 0 14 2 19 5 13 2 -7 2 -19 0 -25z m-1516 -106 c5
-15 29 -39 54 -55 61 -39 92 -79 109 -140 31 -112 28 -147 -6 -89 -9 15 -42
56 -72 92 -61 71 -91 125 -101 183 -8 43 2 49 16 9z m-991 -91 c31 -73 70
-208 70 -243 0 -30 -17 -20 -33 20 -14 36 -87 294 -87 309 0 18 22 -19 50 -86z
m2612 -80 c26 -34 22 -50 -15 -66 -19 -8 -46 -30 -61 -49 -15 -20 -31 -36 -35
-36 -17 0 -19 66 -5 155 23 151 20 146 61 79 20 -33 45 -70 55 -83z m-2736
-66 c23 -49 45 -100 49 -112 6 -23 22 -34 114 -78 35 -16 51 -29 45 -35 -14
-14 -74 5 -106 35 -62 58 -14 -27 110 -193 51 -68 92 -128 92 -133 0 -31 -236
188 -290 269 -48 73 -80 207 -79 332 0 49 2 52 11 30 6 -14 30 -65 54 -115z
m1694 51 c0 -3 -4 -8 -10 -11 -5 -3 -10 -1 -10 4 0 6 5 11 10 11 6 0 10 -2 10
-4z m569 -63 c37 -127 41 -156 25 -180 -21 -32 -32 -29 -44 15 -17 61 -34 197
-27 215 12 32 26 17 46 -50z m721 15 c0 -30 -1 -30 -14 -13 -14 19 -11 45 5
45 5 0 9 -14 9 -32z m-230 -47 c13 -25 13 -58 -1 -66 -16 -10 -59 35 -59 62 0
18 6 23 25 23 14 0 29 -8 35 -19z m216 -9 c20 -26 40 -102 26 -102 -4 0 -22 9
-39 20 -33 20 -39 40 -27 88 8 28 14 27 40 -6z m-1094 -14 c-8 -8 -51 -12
-124 -13 l-112 0 3 -60 c6 -168 102 -305 279 -400 28 -16 52 -32 52 -36 0 -4
-17 -12 -37 -18 l-38 -10 45 6 c25 3 72 16 104 29 68 27 66 27 66 15 0 -16
-94 -69 -136 -76 -134 -21 -424 215 -424 345 0 35 32 135 61 192 l19 38 127 0
c99 0 124 -3 115 -12z m3392 -50 c3 -13 6 -36 6 -51 0 -15 7 -42 16 -59 21
-40 15 -195 -10 -281 -12 -39 -16 -83 -14 -137 3 -85 -4 -101 -20 -47 -21 67
-21 85 -5 232 13 118 14 170 6 245 -6 52 -8 101 -6 108 8 19 20 14 27 -10z
m-3784 -62 c0 -52 -30 -94 -69 -98 -20 -3 -27 3 -35 31 -9 33 -8 36 33 73 58
51 71 49 71 -6z m1248 11 c15 -21 18 -33 10 -36 -13 -4 -48 35 -48 55 0 23 13
16 38 -19z m-2389 -38 c41 -10 90 -19 109 -19 20 0 33 -3 29 -6 -24 -24 -223
16 -243 48 -5 8 -1 9 12 4 10 -4 52 -16 93 -27z m2411 -46 c0 -29 -2 -29 -19
5 -10 18 -9 22 4 22 10 0 15 -9 15 -27z m-610 -189 c0 -18 -47 -67 -84 -89
-52 -30 -76 -31 -107 -5 l-24 19 30 1 c32 0 148 51 159 69 8 12 26 15 26 5z
m1988 -184 c23 -16 58 -55 78 -85 48 -72 133 -281 126 -308 -4 -16 -11 -2 -27
49 -49 160 -142 308 -211 334 -88 34 -155 -16 -199 -147 -21 -62 -25 -69 -20
-35 3 24 18 72 34 106 51 113 137 146 219 86z m-32 -109 c7 -30 17 -47 31 -52
36 -13 42 -36 26 -98 -8 -31 -20 -61 -26 -68 -7 -6 -39 -18 -72 -27 -55 -14
-61 -14 -78 2 -14 12 -17 25 -13 51 3 20 -1 45 -9 62 -8 15 -15 48 -15 74 0
51 12 57 53 25 35 -28 41 -25 21 10 -17 28 -17 30 1 50 12 13 28 20 44 18 22
-2 28 -11 37 -47z m-2509 -149 c-3 -38 -13 -84 -21 -103 l-16 -34 6 65 c8 101
16 140 27 140 6 0 8 -25 4 -68z m2189 43 c18 -14 17 -14 -13 -9 -29 6 -34 3
-44 -22 -6 -16 -15 -63 -19 -104 l-7 -75 -2 88 c-1 81 1 90 24 112 28 29 35
30 61 10z m136 -136 c-24 -9 -42 9 -42 42 l0 29 29 -32 c26 -29 27 -34 13 -39z
m-60 5 c26 -53 26 -58 12 -85 -19 -37 -33 -37 -47 1 -6 17 -15 30 -20 30 -14
0 4 -43 25 -60 19 -15 19 -16 1 -48 -10 -17 -21 -32 -24 -32 -12 0 -59 118
-59 149 0 17 7 47 14 66 12 28 20 35 43 35 24 0 32 -8 55 -56z m400 -26 c-5
-57 -16 -78 -39 -78 -8 0 -13 6 -11 13 3 6 13 36 22 65 10 28 21 52 25 52 5 0
6 -24 3 -52z m-322 -33 c-6 -15 -13 -25 -16 -23 -2 3 1 17 7 32 16 34 23 27 9
-9z m-5205 5 c6 -4 28 -13 50 -20 43 -14 135 -59 135 -67 0 -10 -267 85 -276
98 -6 11 75 0 91 -11z m280 -6 l40 -19 -72 -3 c-48 -2 -84 2 -109 13 -20 8
-48 15 -63 16 l-26 1 25 8 c41 15 161 5 205 -16z m-951 -9 c18 -14 13 -15 -51
-15 -99 0 -126 13 -43 21 36 3 67 6 70 7 3 1 14 -5 24 -13z m206 0 c11 -13 5
-15 -41 -14 -30 0 -72 6 -94 14 l-40 13 81 1 c61 1 85 -3 94 -14z m241 3 c34
-13 34 -13 -36 -19 -54 -5 -82 -2 -120 12 l-50 18 86 0 c47 1 101 -5 120 -11z
m-621 -23 c11 -13 2 -15 -68 -15 -74 0 -101 7 -85 24 3 3 37 6 73 6 48 0 71
-4 80 -15z m6250 -85 c36 -23 56 -39 45 -36 -39 13 -126 71 -158 105 l-32 35
40 -31 c22 -17 69 -50 105 -73z m229 40 c0 -14 -4 -32 -9 -40 -7 -11 -10 3 -9
45 0 43 3 54 9 40 5 -11 9 -31 9 -45z m-5704 10 c55 -23 84 -38 65 -35 -29 5
-186 73 -170 75 3 0 50 -18 105 -40z m1652 -106 c7 -65 11 -119 9 -122 -20
-20 -55 134 -56 248 0 23 1 23 17 8 11 -12 20 -52 30 -134z m1253 86 c0 -53
-33 -114 -97 -182 -74 -77 -193 -181 -201 -174 -3 3 51 63 120 134 129 132
158 178 158 256 0 24 3 27 10 16 5 -8 10 -31 10 -50z m2147 38 c-3 -8 -6 -5
-6 6 -1 11 2 17 5 13 3 -3 4 -12 1 -19z m-5343 -18 c11 -11 -83 -14 -123 -3
-23 6 -24 7 -5 15 24 10 114 2 128 -12z m241 -10 l40 -18 -50 -1 c-27 0 -61 2
-74 6 -23 6 -23 7 -5 14 14 6 9 8 -21 9 -39 2 -39 3 -10 10 36 9 67 3 120 -20z
m567 13 l43 -18 -50 -5 c-49 -5 -149 5 -168 17 -18 11 19 23 75 23 32 0 76 -8
100 -17z m-1034 -2 c36 -22 -65 -28 -113 -6 -29 13 -28 13 35 14 36 0 71 -3
78 -8z m5816 -17 c10 -37 2 -39 -11 -4 -6 17 -8 30 -3 30 4 0 11 -12 14 -26z
m-5995 2 l23 -13 -32 -7 c-54 -10 -124 -6 -143 9 -18 13 -16 14 15 18 68 8
114 6 137 -7z m5907 -32 c-10 -14 -20 -23 -23 -20 -3 3 2 17 11 32 10 14 20
23 23 20 3 -3 -2 -17 -11 -32z m-5391 -10 c29 -12 29 -12 -26 -13 -31 -1 -71
4 -90 11 l-34 12 30 7 c35 7 78 1 120 -17z m502 20 c-3 -3 -12 -4 -19 -1 -8 3
-5 6 6 6 11 1 17 -2 13 -5z m403 -40 c24 -13 22 -13 -30 -15 -89 -2 -116 1
-167 21 l-48 18 50 7 c28 4 55 8 60 9 13 4 104 -23 135 -40z m-1136 27 c10
-16 -105 -21 -133 -6 -24 13 -21 14 51 15 42 0 79 -4 82 -9z m791 -11 c3 -6
-1 -7 -9 -4 -18 7 -21 14 -7 14 6 0 13 -4 16 -10z m4883 -29 c13 -43 16 -141
5 -140 -5 0 -24 21 -43 47 l-36 47 24 43 c13 23 27 42 31 42 4 0 13 -17 19
-39z m-5859 15 c22 -12 20 -13 -30 -19 -75 -9 -131 -8 -148 2 -14 9 -9 11 79
24 49 8 75 6 99 -7z m783 -2 c19 -11 6 -12 -87 -10 -61 1 -119 8 -130 14 -29
17 186 13 217 -4z m368 -52 c47 -29 32 -28 -51 5 -42 16 -64 30 -57 34 13 8
55 -7 108 -39z m-875 24 l50 -13 -42 -7 c-53 -10 -173 13 -133 25 38 11 70 10
125 -5z m245 -2 c30 -5 32 -8 15 -14 -31 -12 -155 3 -155 19 0 9 80 6 140 -5z
m5397 -6 c-3 -8 -6 -5 -6 6 -1 11 2 17 5 13 3 -3 4 -12 1 -19z m-5825 -18 l33
-20 -50 -1 c-27 0 -71 -4 -97 -8 -38 -6 -53 -4 -75 11 l-28 18 45 1 c36 0 127
12 137 18 2 0 17 -8 35 -19z m803 6 c17 -12 7 -13 -75 -9 -146 8 -176 21 -49
22 75 1 111 -3 124 -13z m619 -24 c34 -13 37 -17 20 -23 -37 -15 -120 -8 -189
15 -69 23 -70 24 -35 30 88 15 121 11 204 -22z m851 -76 c34 -83 41 -113 18
-84 -11 13 -55 124 -68 168 -15 52 14 3 50 -84z m-1948 55 c37 -20 -71 -20
-167 0 -3 1 6 5 20 10 28 9 125 3 147 -10z m233 4 c34 -13 34 -13 -42 -14 -88
-1 -129 9 -88 20 40 11 92 9 130 -6z m355 -6 c7 -9 2 -10 -20 -4 -16 4 -75 7
-130 8 l-100 0 90 7 c102 8 145 5 160 -11z m301 -15 c31 -14 53 -28 51 -30 -5
-5 -108 36 -121 48 -20 17 16 8 70 -18z m-1103 2 c18 -14 17 -15 -3 -21 -29
-9 -140 -12 -146 -4 -5 8 -24 7 -40 -3 -6 -4 -19 -1 -30 6 -16 12 -9 15 61 21
44 3 87 8 95 9 31 7 45 5 63 -8z m786 -12 c54 -11 34 -22 -40 -23 -80 -1 -113
11 -59 20 51 9 64 10 99 3z m147 -35 c10 -17 -53 -9 -74 10 -12 10 -22 21 -22
24 0 8 89 -23 96 -34z m-621 2 l40 -19 -67 -1 c-37 -1 -79 4 -95 11 l-28 11
30 7 c50 13 78 10 120 -9z m276 2 c8 -8 -52 -10 -154 -3 -5 0 -5 5 -1 11 8 14
140 7 155 -8z m-464 -23 c16 -10 16 -11 -4 -7 -13 3 -23 1 -23 -4 0 -5 -24 -9
-52 -9 -29 -1 -73 -5 -98 -10 -27 -5 -46 -5 -48 1 -2 5 -10 9 -18 9 -32 0 -11
17 24 19 20 1 66 6 102 10 74 8 92 7 117 -9z m1166 -4 c14 -11 15 -15 4 -19
-8 -3 -20 -1 -28 4 -12 7 -12 9 1 9 13 0 13 1 0 10 -8 5 -10 10 -5 10 6 -1 18
-7 28 -14z m-253 -23 c23 -13 21 -13 -29 -7 -29 3 -91 7 -138 8 -46 2 -88 7
-94 13 -16 16 231 3 261 -14z m3590 -83 c9 -17 2 -70 -9 -70 -10 0 -91 143
-91 160 0 14 84 -62 100 -90z m-3912 66 c8 -8 -113 -7 -134 1 -17 6 -17 7 1
13 19 7 123 -4 133 -14z m-270 8 c47 -13 21 -26 -43 -22 -85 5 -113 28 -34 28
29 0 64 -3 77 -6z m887 -4 c3 -6 -1 -7 -9 -4 -18 7 -21 14 -7 14 6 0 13 -4 16
-10z m485 -44 l55 -25 -40 1 c-22 0 -61 -2 -86 -5 -33 -4 -68 2 -130 23 -80
27 -83 28 -49 34 99 17 171 9 250 -28z m3862 4 c17 0 19 -3 9 -9 -19 -12 -46
-3 -73 27 l-23 26 32 -22 c17 -12 42 -22 55 -22z m-5454 12 c3 -10 -2 -10 -21
-1 -18 8 -46 8 -108 0 -80 -11 -154 -14 -134 -5 54 22 256 27 263 6z m37 -10
c-3 -3 -11 0 -18 7 -9 10 -8 11 6 5 10 -3 15 -9 12 -12z m926 -5 c31 -13 23
-14 -98 -11 -81 2 -145 9 -165 17 -30 13 -20 14 98 11 84 -2 144 -8 165 -17z
m-1356 -67 c55 -37 127 -84 160 -106 74 -48 99 -68 148 -117 54 -55 46 -73
-10 -21 -25 24 -87 71 -137 105 -133 91 -331 244 -276 213 8 -4 60 -38 115
-74z m734 54 c17 -4 31 -10 31 -14 0 -15 -100 -21 -143 -8 l-42 12 45 7 c68 9
75 9 109 3z m289 -4 c6 0 12 -4 12 -10 0 -11 -128 -14 -155 -4 -33 13 9 24 70
20 33 -3 66 -5 73 -6z m693 -16 l34 -15 -35 6 c-19 3 -39 10 -44 15 -15 15 7
12 45 -6z m-1253 -11 c-10 -2 -28 -2 -40 0 -13 2 -5 4 17 4 22 1 32 -1 23 -4z
m-128 -19 c-35 -8 -71 -11 -80 -8 -21 10 31 22 95 22 l50 0 -65 -14z m1223
-20 c38 -16 63 -30 57 -32 -14 -5 -171 46 -185 60 -18 18 57 1 128 -28z m640
1 c26 -8 55 -19 65 -25 16 -11 16 -11 0 -6 -20 6 -25 -10 -5 -17 6 -3 -19 -6
-58 -6 -62 -1 -119 11 -190 40 -38 15 17 10 74 -7 29 -8 55 -13 57 -11 3 2
-16 10 -41 17 -25 7 -45 17 -45 21 0 14 90 10 143 -6z m-1023 -10 c11 -13 6
-15 -34 -15 -66 0 -59 20 10 29 6 0 17 -6 24 -14z m-280 -9 c-12 -12 -128 -12
-141 1 -6 6 18 9 70 9 49 -1 77 -4 71 -10z m600 4 c17 -6 1 -8 -53 -9 -50 -1
-76 3 -72 9 7 12 89 12 125 0z m1594 -31 c-12 -20 -73 -39 -121 -38 l-48 2 57
7 c32 4 68 14 80 23 27 19 42 21 32 6z m-2638 -8 c-18 -7 -18 -8 -3 -14 20 -8
23 -27 4 -27 -18 0 -58 35 -50 44 3 3 20 6 37 5 25 0 27 -2 12 -8z m1338 -41
c12 -12 -12 -12 -74 0 -27 5 -67 4 -101 -2 -50 -9 -61 -7 -95 12 l-39 21 87
-5 c68 -4 87 -2 92 9 4 12 15 11 63 -6 31 -11 62 -24 67 -29z m-1107 24 c-3
-3 -12 -4 -19 -1 -8 3 -5 6 6 6 11 1 17 -2 13 -5z m50 0 c-3 -3 -12 -4 -19 -1
-8 3 -5 6 6 6 11 1 17 -2 13 -5z m263 -13 l65 -7 -58 -8 c-40 -6 -66 -5 -87 4
-42 17 -51 35 -14 25 16 -4 58 -11 94 -14z m286 4 c4 -11 21 -15 55 -15 27 0
49 -4 49 -10 0 -17 -123 -12 -148 6 -12 8 -22 19 -22 25 0 15 60 10 66 -6z
m-1101 -80 c39 -29 79 -62 90 -75 l20 -23 -30 19 c-49 30 -139 100 -160 125
-25 29 -8 19 80 -46z m2374 30 c48 -19 93 -35 99 -35 6 0 14 -4 17 -10 8 -13
-41 -3 -134 27 -84 27 -176 42 -151 24 21 -15 -24 -15 -92 2 l-53 12 45 6
c119 16 177 10 269 -26z m-608 -28 l54 -25 -112 -1 c-62 0 -113 3 -113 7 0 5
-6 9 -12 10 -7 1 -35 6 -63 11 -47 9 -45 9 25 6 41 -2 93 -6 115 -10 l40 -6
-25 22 -25 22 31 -6 c16 -3 55 -17 85 -30z m-1336 1 c14 -14 -66 -5 -91 11
-16 10 -10 11 31 6 28 -4 55 -11 60 -17z m1612 6 c-3 -3 -12 -4 -19 -1 -8 3
-5 6 6 6 11 1 17 -2 13 -5z m49 -19 c16 -8 22 -15 14 -15 -8 1 -24 7 -34 15
-25 19 -16 19 20 0z m2964 -11 c16 -42 12 -49 -15 -24 -28 26 -33 50 -10 50 9
0 20 -12 25 -26z m-3105 -53 l60 -29 -75 0 c-50 0 -92 6 -125 19 -33 12 -40
17 -20 14 17 -2 48 -7 70 -10 30 -5 36 -4 25 4 -8 6 -26 11 -40 11 -20 0 -22
2 -10 10 25 16 52 11 115 -19z m-185 -12 c19 -6 41 -14 49 -16 8 -2 11 -6 8
-9 -7 -8 -126 27 -134 39 -7 11 22 6 77 -14z m-575 -9 c-3 -5 -17 -10 -31 -10
-13 0 -24 5 -24 10 0 6 14 10 31 10 17 0 28 -4 24 -10z m-465 -9 c0 -14 -27
-21 -76 -21 -48 0 -60 16 -16 23 52 8 92 7 92 -2z m1445 -57 c36 -14 68 -30
71 -35 3 -5 -27 -8 -68 -8 -40 1 -63 4 -50 6 12 2 22 8 22 13 0 4 -10 10 -22
13 -13 4 -32 13 -43 21 -20 15 -20 15 2 16 13 0 52 -12 88 -26z m-804 3 c-1
-12 -15 -9 -19 4 -3 6 1 10 8 8 6 -3 11 -8 11 -12z m619 3 c8 -5 11 -10 5 -11
-5 0 15 -9 45 -19 l55 -18 -38 -1 c-25 -1 -48 6 -64 19 -14 11 -36 20 -49 20
-13 0 -24 5 -24 10 0 13 50 13 70 0z m988 -31 c35 -12 62 -22 60 -24 -2 -2
-34 5 -73 15 -77 21 -137 24 -204 11 -28 -6 -56 -5 -80 3 -35 11 -35 11 39 17
108 9 186 3 258 -22z m-2008 -9 c8 -5 11 -12 8 -16 -10 -9 -58 4 -58 16 0 13
30 13 50 0z m-192 -9 c20 -6 32 -6 32 0 0 5 11 9 25 9 17 0 25 -6 25 -16 0
-14 -8 -16 -55 -11 -51 5 -110 26 -75 27 8 0 30 -4 48 -9z m669 -27 c-3 -3
-12 -4 -19 -1 -8 3 -5 6 6 6 11 1 17 -2 13 -5z"/>
<path d="M3601 8341 c-15 -27 -14 -41 4 -41 9 0 12 6 9 15 -4 9 0 15 10 15 10
0 13 -6 10 -15 -4 -8 -1 -15 6 -15 6 0 10 11 8 27 -4 34 -32 42 -47 14z"/>
<path d="M5420 7846 c0 -2 7 -7 16 -10 8 -3 12 -2 9 4 -6 10 -25 14 -25 6z"/>
<path d="M5495 7797 c17 -14 44 -33 60 -42 l30 -16 -30 26 c-16 14 -43 33 -60
41 l-30 16 30 -25z"/>
<path d="M5590 7737 c0 -3 17 -17 37 -33 20 -15 33 -23 29 -16 -8 13 -66 56
-66 49z"/>
<path d="M6866 7515 c24 -39 24 -40 24 -28 0 6 -9 21 -21 34 l-20 24 17 -30z"/>
<path d="M6940 7342 c0 -7 7 -29 15 -48 20 -50 74 -257 95 -372 10 -54 19 -87
19 -76 2 35 -28 193 -54 290 -26 96 -74 228 -75 206z"/>
<path d="M7071 6794 c0 -11 3 -14 6 -6 3 7 2 16 -1 19 -3 4 -6 -2 -5 -13z"/>
<path d="M6767 6780 c-3 -74 -13 -173 -21 -220 -8 -47 -17 -105 -20 -130 l-5
-45 14 38 c26 70 55 259 54 357 -1 151 -15 151 -22 0z"/>
<path d="M1502 4930 c0 -14 2 -19 5 -12 2 6 2 18 0 25 -3 6 -5 1 -5 -13z"/>
<path d="M5092 4535 c0 -16 2 -22 5 -12 2 9 2 23 0 30 -3 6 -5 -1 -5 -18z"/>
<path d="M5052 4350 c0 -19 2 -27 5 -17 2 9 2 25 0 35 -3 9 -5 1 -5 -18z"/>
<path d="M5043 4250 c0 -25 2 -35 4 -22 2 12 2 32 0 45 -2 12 -4 2 -4 -23z"/>
<path d="M5032 4160 c0 -14 2 -19 5 -12 2 6 2 18 0 25 -3 6 -5 1 -5 -13z"/>
<path d="M7823 3848 c-16 -21 -23 -48 -13 -48 6 0 10 4 10 8 0 5 7 17 15 28
14 18 14 18 9 -3 -4 -14 -1 -21 8 -20 36 1 47 -5 57 -35 6 -17 14 -29 17 -25
8 8 -26 77 -38 77 -5 0 -16 7 -24 15 -19 18 -29 19 -41 3z"/>
<path d="M7853 3793 c-9 -3 -9 -10 -1 -29 8 -17 8 -31 0 -48 -8 -17 -8 -26 0
-28 6 -2 4 -17 -6 -42 -9 -22 -14 -41 -11 -44 3 -3 5 0 5 6 0 6 7 9 16 5 14
-5 16 -2 10 20 -5 20 -3 27 7 27 9 0 14 11 13 30 -1 20 -5 29 -13 25 -10 -3
-10 0 -1 14 13 21 -1 70 -19 64z"/>
<path d="M7720 3788 c0 -2 9 -35 19 -75 10 -40 17 -74 14 -77 -9 -8 20 -75 35
-81 22 -8 30 5 9 16 -9 6 -17 21 -17 35 0 13 -4 32 -10 42 -5 9 -14 43 -20 74
-6 32 -16 60 -21 63 -5 4 -9 5 -9 3z"/>
<path d="M8076 3713 c-8 -53 -7 -96 3 -111 5 -9 8 19 8 67 0 45 -2 81 -3 81
-1 0 -4 -17 -8 -37z"/>
<path d="M7811 3711 c-12 -16 -18 -36 -15 -45 10 -26 24 -18 24 12 0 15 5 33
12 40 6 6 9 14 6 17 -3 4 -15 -7 -27 -24z"/>
<path d="M7921 3700 c1 -42 1 -43 10 -18 7 18 7 33 0 45 -8 14 -10 9 -10 -27z"/>
<path d="M7884 3549 c-4 -6 -19 -9 -36 -5 -18 3 -27 2 -23 -4 9 -15 61 -12 75
5 8 9 9 15 2 15 -6 0 -14 -5 -18 -11z"/>
<path d="M4839 3927 c-19 -12 -44 -41 -57 -64 -26 -48 -52 -158 -51 -223 l0
-45 19 58 c10 32 29 75 43 95 13 20 29 47 36 60 21 40 4 23 -29 -28 -18 -27
-36 -50 -40 -50 -11 0 7 76 30 120 10 20 36 51 57 68 45 37 40 42 -8 9z"/>
<path d="M4665 2979 c-61 -57 -84 -89 -63 -89 8 0 22 14 31 30 10 17 25 30 33
30 8 0 14 4 14 9 0 5 12 23 26 40 38 45 23 38 -41 -20z"/>
<path d="M4406 2925 c-9 -26 -7 -32 5 -12 6 10 9 21 6 23 -2 3 -7 -2 -11 -11z"/>
<path d="M4391 2874 c0 -11 3 -14 6 -6 3 7 2 16 -1 19 -3 4 -6 -2 -5 -13z"/>
<path d="M4594 2834 c-13 -87 0 -186 35 -259 17 -37 34 -66 36 -63 3 3 -6 25
-19 49 -36 66 -49 140 -43 235 2 46 3 84 2 84 -2 0 -7 -21 -11 -46z"/>
<path d="M5174 3938 l-19 -23 23 19 c12 11 22 21 22 23 0 8 -8 2 -26 -19z"/>
<path d="M5930 2154 c0 -6 7 -19 16 -30 14 -18 14 -18 3 6 -14 31 -19 36 -19
24z"/>
<path d="M1351 2574 c0 -11 3 -14 6 -6 3 7 2 16 -1 19 -3 4 -6 -2 -5 -13z"/>
<path d="M1361 2525 c0 -11 6 -69 14 -130 8 -60 15 -114 15 -120 0 -5 4 -3 9
5 5 8 5 42 0 75 -12 83 -37 194 -38 170z"/>
<path d="M1392 2465 c0 -16 2 -22 5 -12 2 9 2 23 0 30 -3 6 -5 -1 -5 -18z"/>
<path d="M5557 2386 c-12 -31 -20 -227 -10 -271 l9 -39 23 32 c12 18 17 31 11
30 -31 -7 -30 91 1 128 9 11 8 15 -5 20 -9 3 -16 13 -16 21 0 12 6 13 28 8 70
-19 92 -22 92 -15 0 5 -27 17 -60 26 -54 17 -59 21 -62 49 -3 25 -4 27 -11 11z"/>
<path d="M7324 1106 c-10 -8 -15 -18 -11 -22 4 -4 15 0 24 9 22 21 12 31 -13
13z"/>
<path d="M1465 560 c-17 -4 5 -5 50 -2 44 2 82 6 84 8 8 7 -104 2 -134 -6z"/>
<path d="M2952 8695 c-3 -240 35 -536 103 -803 38 -146 64 -227 65 -200 0 9
-5 29 -11 45 -32 85 -88 349 -113 538 -16 118 -35 360 -39 490 -2 44 -4 13 -5
-70z"/>
<path d="M5810 8790 c-12 -16 -19 -30 -16 -30 2 0 14 14 26 30 12 17 19 30 16
30 -2 0 -14 -13 -26 -30z"/>
<path d="M7235 8556 c96 -37 104 -38 40 -7 -33 17 -69 30 -80 30 -11 0 7 -10
40 -23z"/>
<path d="M7150 8510 c0 -5 16 -10 35 -10 57 0 137 -20 196 -50 32 -16 59 -26
62 -23 3 3 18 -4 34 -14 46 -32 60 -36 28 -8 -33 29 -136 91 -146 88 -3 -1
-30 4 -60 12 -62 17 -149 20 -149 5z"/>
<path d="M1524 8400 c15 -5 53 -11 85 -14 l56 -5 -65 14 c-73 16 -124 19 -76
5z"/>
<path d="M1695 8371 c57 -17 293 -71 309 -71 9 0 16 -4 16 -9 0 -5 8 -12 18
-15 16 -5 -24 -3 -158 8 l-65 6 65 -14 c36 -8 161 -31 278 -52 169 -30 218
-35 233 -26 26 17 29 4 19 -84 -5 -43 -12 -198 -14 -344 -4 -229 -3 -243 4
-105 25 465 29 538 35 543 3 3 26 1 51 -5 25 -6 42 -7 37 -3 -12 10 -97 40
-130 46 -97 16 -239 46 -254 54 -15 9 -333 63 -434 75 -36 4 -37 4 -10 -4z"/>
<path d="M1757 8299 c7 -7 15 -10 18 -7 3 3 -2 9 -12 12 -14 6 -15 5 -6 -5z"/>
<path d="M2580 8185 c7 -9 15 -13 17 -11 7 7 -7 26 -19 26 -6 0 -6 -6 2 -15z"/>
<path d="M6688 8093 c7 -5 36 -10 65 -12 139 -5 385 -70 656 -173 57 -21 105
-37 107 -35 8 7 -160 80 -276 119 -203 69 -334 99 -455 105 -66 3 -105 1 -97
-4z"/>
<path d="M4686 7943 c10 -18 22 -33 26 -33 15 0 8 17 -19 41 l-26 24 19 -32z"/>
<path d="M4005 7954 c-48 -13 -116 -36 -112 -40 2 -2 35 3 73 11 71 15 144 20
112 7 -10 -4 35 -7 100 -7 107 -1 125 -4 207 -34 162 -60 241 -130 391 -346
52 -76 73 -123 74 -171 0 -31 0 -31 -47 -28 -37 3 -42 1 -23 -5 14 -5 37 -9
51 -10 23 -1 27 -6 31 -37 4 -33 3 -35 -21 -29 -64 16 -76 17 -70 11 3 -3 26
-12 50 -19 52 -15 53 -19 64 -214 7 -132 6 -135 -43 -108 -46 25 -92 46 -92
42 0 -2 20 -17 45 -33 25 -15 45 -32 45 -36 0 -4 9 -8 20 -8 28 0 36 -27 49
-155 6 -60 14 -111 17 -114 11 -10 -21 469 -47 704 -12 115 -76 366 -121 473
-17 40 -32 72 -34 70 -3 -4 22 -95 72 -252 19 -60 33 -111 30 -113 -2 -2 -19
20 -37 49 -32 49 -130 170 -171 211 -34 34 -15 33 25 -1 9 -8 20 -13 23 -10 7
8 -60 58 -126 95 -30 17 -100 46 -155 63 -88 29 -116 33 -230 36 -71 2 -139 1
-150 -2z"/>
<path d="M7852 7860 c0 -14 2 -19 5 -12 2 6 2 18 0 25 -3 6 -5 1 -5 -13z"/>
<path d="M7585 7819 c17 -19 31 -36 33 -38 1 -2 2 8 2 22 0 15 -3 26 -7 25 -5
-1 -19 4 -33 11 -24 13 -24 12 5 -20z"/>
<path d="M3545 7771 c-124 -72 -240 -245 -276 -413 -6 -26 -9 -53 -7 -60 4
-10 100 139 185 287 19 33 45 74 59 92 13 17 24 35 24 39 0 4 -25 -25 -56 -64
-48 -62 -84 -90 -84 -64 0 21 98 127 145 157 45 29 75 55 63 55 -2 0 -25 -13
-53 -29z m-145 -218 c0 -5 -16 -28 -35 -52 -25 -32 -35 -39 -35 -25 0 27 37
84 55 84 8 0 15 -3 15 -7z"/>
<path d="M4173 7393 c37 -2 96 -2 130 0 34 2 4 3 -68 3 -71 0 -99 -1 -62 -3z"/>
<path d="M5678 7372 c-101 -26 -127 -36 -117 -46 2 -3 35 2 73 10 38 8 71 13
72 11 2 -2 -23 -16 -57 -31 -78 -37 -69 -45 13 -13 35 14 89 33 121 43 31 10
52 21 46 25 -6 4 -8 12 -5 18 11 17 -29 13 -146 -17z"/>
<path d="M4408 7383 c23 -2 61 -2 85 0 23 2 4 4 -43 4 -47 0 -66 -2 -42 -4z"/>
<path d="M4558 7373 c12 -2 30 -2 40 0 9 3 -1 5 -23 4 -22 0 -30 -2 -17 -4z"/>
<path d="M4648 7363 c7 -3 16 -2 19 1 4 3 -2 6 -13 5 -11 0 -14 -3 -6 -6z"/>
<path d="M4373 7323 c15 -2 39 -2 55 0 15 2 2 4 -28 4 -30 0 -43 -2 -27 -4z"/>
<path d="M4508 7313 c12 -2 30 -2 40 0 9 3 -1 5 -23 4 -22 0 -30 -2 -17 -4z"/>
<path d="M2814 7291 c-32 -20 -64 -82 -64 -126 0 -29 -7 -30 -34 -10 -29 22
-89 19 -120 -6 -20 -16 -26 -29 -26 -60 0 -34 7 -48 47 -90 52 -56 162 -115
233 -124 l45 -7 29 74 c25 62 30 87 30 163 0 103 -14 156 -51 185 -32 25 -50
25 -89 1z m80 -25 c30 -29 50 -122 42 -193 -6 -49 -40 -159 -55 -175 -10 -11
-103 16 -160 48 -67 36 -131 105 -131 140 0 15 7 36 17 46 22 25 83 24 116 -2
37 -29 47 -25 47 20 0 52 21 103 51 124 32 22 46 20 73 -8z"/>
<path d="M4588 7303 c7 -3 16 -2 19 1 4 3 -2 6 -13 5 -11 0 -14 -3 -6 -6z"/>
<path d="M5970 7199 c-24 -93 -55 -182 -137 -387 -47 -117 -83 -215 -80 -218
9 -9 136 285 175 406 45 142 67 229 59 237 -3 3 -11 -15 -17 -38z"/>
<path d="M5845 7199 c-4 -6 -5 -12 -2 -15 2 -3 7 2 10 11 7 17 1 20 -8 4z"/>
<path d="M8190 7182 c0 -35 20 -80 53 -122 l20 -25 -6 25 c-4 14 -20 55 -36
90 -28 60 -30 63 -31 32z"/>
<path d="M4407 7189 c5 -4 51 -9 103 -12 61 -4 81 -3 55 2 -55 12 -167 19
-158 10z"/>
<path d="M4932 7165 c0 -16 2 -22 5 -12 2 9 2 23 0 30 -3 6 -5 -1 -5 -18z"/>
<path d="M5793 7127 c-13 -18 -30 -42 -39 -54 -9 -13 -15 -23 -12 -23 7 0 81
100 77 105 -2 2 -14 -11 -26 -28z"/>
<path d="M4655 7066 c17 -7 62 -21 100 -30 39 -9 77 -19 85 -22 9 -2 7 2 -4
11 -11 8 -29 15 -40 15 -12 0 -48 9 -80 20 -66 22 -107 26 -61 6z"/>
<path d="M8151 6969 c-32 -108 -118 -324 -173 -434 -187 -378 -405 -658 -688
-886 -58 -46 -161 -140 -230 -208 -128 -128 -130 -138 -5 -21 90 84 186 167
255 221 75 57 315 300 371 374 109 143 230 337 307 492 75 148 189 466 179
496 -2 6 -9 -10 -16 -34z"/>
<path d="M5592 6805 c0 -16 2 -22 5 -12 2 9 2 23 0 30 -3 6 -5 -1 -5 -18z"/>
<path d="M5604 6510 c0 -140 -2 -316 -5 -390 -5 -86 -4 -109 1 -65 14 121 22
526 12 620 -8 75 -9 47 -8 -165z"/>
<path d="M8312 6727 c-8 -160 -234 -460 -582 -771 -36 -32 -50 -48 -32 -36 54
36 232 201 312 289 111 122 239 296 277 377 29 60 34 80 30 125 -2 40 -4 44
-5 16z"/>
<path d="M8561 6554 c0 -11 3 -14 6 -6 3 7 2 16 -1 19 -3 4 -6 -2 -5 -13z"/>
<path d="M4179 6476 c-30 -24 -93 -81 -139 -127 -46 -46 -72 -68 -59 -49 49
68 40 64 -38 -16 -55 -57 -92 -106 -121 -162 -36 -69 -39 -79 -22 -75 11 3 59
55 106 115 48 60 143 166 212 234 68 68 123 124 121 124 -2 0 -29 -20 -60 -44z"/>
<path d="M8577 6415 c4 -77 1 -131 -10 -180 -39 -183 -164 -407 -215 -387 -9
3 4 -21 29 -54 38 -49 170 -239 269 -387 14 -20 28 -37 33 -37 11 0 8 25 -4
37 -6 6 -13 56 -15 109 -6 149 -59 467 -92 555 -11 27 -5 79 9 79 4 0 15 -21
23 -47 7 -27 46 -131 86 -233 40 -102 91 -237 112 -300 37 -110 39 -113 35
-60 -4 58 -42 163 -171 480 l-76 185 -1 145 c-1 80 -5 159 -9 175 -4 17 -6
-19 -3 -80z m-17 -343 c0 -4 11 -75 25 -157 13 -83 29 -197 35 -255 6 -58 12
-120 15 -137 2 -18 0 -33 -4 -33 -4 0 -45 52 -91 116 -45 63 -100 136 -121
162 -22 26 -39 49 -39 52 0 4 20 28 44 54 25 26 62 83 83 126 34 70 53 96 53
72z"/>
<path d="M5828 6273 c6 -2 18 -2 25 0 6 3 1 5 -13 5 -14 0 -19 -2 -12 -5z"/>
<path d="M6111 6210 c-12 -22 -20 -40 -17 -40 7 0 49 71 44 75 -2 3 -15 -13
-27 -35z"/>
<path d="M3111 6124 c-1 -16 131 -210 178 -264 29 -33 40 -40 41 -27 0 22
-126 201 -167 237 -15 14 -33 35 -40 45 -6 11 -12 15 -12 9z"/>
<path d="M5111 6114 c0 -11 3 -14 6 -6 3 7 2 16 -1 19 -3 4 -6 -2 -5 -13z"/>
<path d="M5102 6060 c0 -14 2 -19 5 -12 2 6 2 18 0 25 -3 6 -5 1 -5 -13z"/>
<path d="M6178 6033 c-23 -21 -59 -60 -81 -88 -31 -38 -39 -44 -34 -25 13 52
-21 -11 -54 -99 -40 -111 -44 -143 -25 -216 25 -94 22 -109 -30 -157 -25 -24
-50 -52 -56 -63 -6 -11 8 -2 31 20 44 42 56 35 18 -12 -13 -15 -31 -40 -40
-55 -28 -45 5 -36 42 11 72 91 88 178 51 288 l-21 60 40 86 c57 125 108 194
191 259 19 15 29 28 23 28 -7 0 -32 -17 -55 -37z"/>
<path d="M5328 5985 c-4 -4 2 -16 12 -27 14 -16 25 -18 50 -13 27 6 32 4 37
-14 6 -24 6 -24 53 -5 31 13 32 14 7 10 -20 -2 -33 3 -45 19 -15 20 -18 20
-44 7 -26 -13 -30 -12 -46 8 -9 12 -20 18 -24 15z"/>
<path d="M5582 5950 c0 -19 2 -27 5 -17 2 9 2 25 0 35 -3 9 -5 1 -5 -18z"/>
<path d="M4010 5960 c0 -5 5 -10 11 -10 5 0 7 5 4 10 -3 6 -8 10 -11 10 -2 0
-4 -4 -4 -10z"/>
<path d="M5279 5953 c-13 -17 -13 -17 6 -3 11 8 22 16 24 17 2 2 0 3 -6 3 -6
0 -17 -8 -24 -17z"/>
<path d="M5077 5926 c-4 -10 -5 -21 -2 -24 9 -9 17 6 13 25 -3 17 -4 17 -11
-1z"/>
<path d="M5530 5904 c6 -14 10 -48 10 -75 0 -41 -5 -54 -27 -75 -15 -14 -33
-22 -40 -20 -7 3 -13 1 -13 -4 0 -20 42 -9 69 18 26 26 61 136 47 149 -3 4 -6
-3 -6 -15 0 -35 -17 -25 -24 13 -4 19 -11 35 -16 35 -6 0 -6 -10 0 -26z"/>
<path d="M5264 5890 c3 -8 9 -23 12 -32 4 -10 10 -18 15 -18 14 0 10 13 -12
40 -11 14 -18 18 -15 10z"/>
<path d="M7629 5873 c-13 -15 -12 -15 9 -4 23 12 28 21 13 21 -5 0 -15 -7 -22
-17z"/>
<path d="M5233 5857 c4 -11 -4 -29 -23 -51 -36 -41 -38 -71 -6 -111 24 -30 24
-30 58 -13 35 16 35 16 65 -14 l31 -30 42 23 c39 22 41 26 35 57 -5 27 -3 32
7 26 9 -6 9 -2 -2 12 -8 10 -15 21 -17 23 -1 1 -6 0 -12 -3 -6 -4 -4 -16 5
-34 19 -37 18 -47 -11 -66 -32 -21 -37 -20 -70 10 -24 22 -31 24 -58 15 -45
-16 -55 -14 -72 19 -20 39 -20 42 15 81 32 37 37 54 18 65 -8 5 -9 2 -5 -9z"/>
<path d="M7589 5843 c-13 -16 -12 -17 4 -4 9 7 17 15 17 17 0 8 -8 3 -21 -13z"/>
<path d="M7213 5818 c-43 -54 -120 -178 -96 -153 14 14 114 165 109 165 -2 0
-8 -6 -13 -12z"/>
<path d="M3285 5772 c6 -5 26 -12 45 -16 41 -7 21 8 -25 18 -19 5 -26 4 -20
-2z"/>
<path d="M3370 5752 c0 -4 19 -25 41 -47 l42 -40 -29 42 c-27 39 -54 62 -54
45z"/>
<path d="M6020 5731 c0 -12 50 -64 57 -58 3 3 -4 16 -16 28 -12 13 -21 26 -21
31 0 4 -4 8 -10 8 -5 0 -10 -4 -10 -9z"/>
<path d="M4366 5678 c3 -37 2 -39 -5 -13 -8 29 -9 29 -11 5 -5 -56 17 -130 38
-130 48 0 39 127 -11 169 -13 10 -15 6 -11 -31z"/>
<path d="M6357 5625 c-9 -19 -15 -35 -12 -35 7 0 37 61 33 66 -3 2 -12 -12
-21 -31z"/>
<path d="M4331 5547 c-6 -14 -18 -30 -28 -36 -17 -9 -16 -13 9 -58 35 -64 68
-88 105 -78 l28 8 -31 7 c-44 10 -52 16 -75 62 -19 38 -20 42 -4 75 9 19 14
37 11 40 -3 3 -10 -6 -15 -20z"/>
<path d="M6275 5503 c-35 -44 -36 -46 -6 -18 29 26 58 65 48 65 -1 0 -20 -21
-42 -47z"/>
<path d="M4870 5524 c0 -9 5 -14 12 -12 18 6 21 28 4 28 -9 0 -16 -7 -16 -16z"/>
<path d="M2860 5360 c-7 -44 -10 -83 -8 -86 3 -3 11 32 18 76 7 44 10 83 8 86
-3 3 -11 -32 -18 -76z"/>
<path d="M5977 5331 c-41 -26 -46 -36 -10 -17 17 9 35 20 38 26 8 13 6 12 -28
-9z"/>
<path d="M8691 5320 c123 -201 144 -232 147 -210 4 25 -89 170 -136 212 l-26
23 15 -25z"/>
<path d="M2842 5230 c0 -19 2 -27 5 -17 2 9 2 25 0 35 -3 9 -5 1 -5 -18z"/>
<path d="M5902 5193 c-32 -47 -95 -164 -90 -169 3 -2 10 1 15 8 14 18 113 179
113 184 0 13 -21 0 -38 -23z"/>
<path d="M3457 5158 c-3 -7 -2 -34 0 -59 5 -45 5 -46 -53 -98 -33 -29 -50 -49
-39 -45 34 12 108 70 165 130 l55 58 -49 -42 c-27 -23 -53 -42 -58 -42 -5 0
-7 25 -5 55 4 50 -5 73 -16 43z"/>
<path d="M2832 5130 c0 -19 2 -27 5 -17 2 9 2 25 0 35 -3 9 -5 1 -5 -18z"/>
<path d="M6245 5036 c-6 -7 -46 -58 -90 -112 -44 -54 -88 -110 -98 -124 -28
-38 28 25 112 126 41 49 81 97 89 107 8 9 11 17 6 17 -5 0 -14 -6 -19 -14z"/>
<path d="M3352 4550 c0 -19 2 -27 5 -17 2 9 2 25 0 35 -3 9 -5 1 -5 -18z"/>
<path d="M5964 4572 c-22 -15 -94 -119 -117 -170 l-25 -54 -10 54 c-9 49 -10
46 -9 -47 1 -55 -4 -143 -11 -195 -13 -95 -9 -168 12 -239 10 -34 11 -22 13
94 5 263 33 365 147 538 19 28 19 32 0 19z"/>
<path d="M3340 4481 c0 -52 -59 -201 -156 -395 -86 -170 -107 -221 -76 -184
26 32 164 313 196 400 33 89 57 208 42 208 -3 0 -6 -13 -6 -29z"/>
<path d="M2791 4474 c0 -11 3 -14 6 -6 3 7 2 16 -1 19 -3 4 -6 -2 -5 -13z"/>
<path d="M2745 4375 c-16 -25 -36 -47 -45 -50 -20 -6 -78 -65 -64 -65 26 0
106 77 133 128 23 43 5 33 -24 -13z"/>
<path d="M3490 4309 c0 -5 5 -7 10 -4 6 3 10 8 10 11 0 2 -4 4 -10 4 -5 0 -10
-5 -10 -11z"/>
<path d="M3470 4270 c-6 -11 -8 -20 -6 -20 3 0 10 9 16 20 6 11 8 20 6 20 -3
0 -10 -9 -16 -20z"/>
<path d="M2433 4232 c17 -19 87 -45 96 -37 2 3 -1 5 -7 5 -7 0 -12 7 -12 15 0
10 -10 15 -29 15 -17 0 -33 5 -36 10 -3 6 -11 10 -17 10 -6 0 -4 -8 5 -18z"/>
<path d="M3370 3682 c0 -13 45 -52 60 -52 8 0 2 12 -15 30 -28 30 -45 38 -45
22z"/>
<path d="M3346 3609 c3 -5 24 -9 46 -9 51 0 47 5 -10 13 -24 3 -40 1 -36 -4z"/>
<path d="M3900 3376 c0 -2 7 -7 16 -10 8 -3 12 -2 9 4 -6 10 -25 14 -25 6z"/>
<path d="M3608 3353 c7 -3 16 -2 19 1 4 3 -2 6 -13 5 -11 0 -14 -3 -6 -6z"/>
<path d="M3418 3343 c12 -2 30 -2 40 0 9 3 -1 5 -23 4 -22 0 -30 -2 -17 -4z"/>
<path d="M3685 2794 c-38 -18 -97 -43 -130 -54 -48 -16 -52 -19 -20 -14 22 4
47 8 55 8 8 1 26 9 40 18 14 9 52 30 85 47 82 41 57 38 -30 -5z"/>
<path d="M3440 2715 c0 -12 67 -45 90 -44 23 1 22 2 -6 10 -17 5 -37 16 -44
24 -12 14 -40 21 -40 10z"/>
<path d="M2709 2372 c16 -30 35 -41 122 -71 115 -39 169 -62 169 -71 0 -4 -9
-15 -20 -25 -39 -35 -62 -82 -51 -103 16 -30 117 -62 191 -61 26 1 19 4 -30
14 -81 16 -150 43 -150 59 0 16 26 54 67 97 l34 36 -73 30 c-40 17 -106 41
-147 53 -41 13 -82 31 -92 41 -24 24 -32 24 -20 1z"/>
<path d="M1337 1863 c-9 -25 -16 -48 -14 -50 2 -2 12 17 22 42 9 26 15 48 13
50 -2 2 -12 -17 -21 -42z"/>
<path d="M2453 1655 c8 -20 2 -23 -102 -36 -50 -6 -90 -13 -88 -15 2 -3 29 -5
60 -6 32 -1 57 -5 57 -9 0 -3 -42 -12 -92 -18 -51 -7 -120 -19 -153 -26 -59
-13 -56 -14 97 -12 86 1 159 -1 162 -3 11 -13 13 -81 5 -217 -5 -81 -10 -178
-12 -215 l-3 -67 50 -25 c27 -14 52 -23 56 -21 20 13 35 664 16 677 -6 4 -22
8 -35 8 -16 0 -21 -4 -18 -15z"/>
<path d="M3054 1356 c-49 -46 -117 -107 -151 -137 -83 -72 -71 -77 14 -6 106
88 248 227 231 227 -2 0 -44 -38 -94 -84z"/>
<path d="M2799 1383 l-34 -37 32 25 c26 20 50 49 40 49 -2 0 -19 -17 -38 -37z"/>
<path d="M3141 1264 c-14 -49 -7 -56 9 -9 7 20 10 39 7 42 -3 3 -10 -12 -16
-33z"/>
<path d="M2146 1248 c-71 -4 -132 -10 -134 -13 -12 -12 13 -17 124 -23 l119
-7 3 -82 c3 -82 3 -83 28 -83 19 0 25 4 20 15 -3 8 -2 15 3 15 11 0 1 162 -11
178 -6 6 -13 11 -17 11 -3 -1 -64 -6 -135 -11z"/>
<path d="M442 1220 c0 -14 2 -19 5 -12 2 6 2 18 0 25 -3 6 -5 1 -5 -13z"/>
<path d="M1930 1209 c0 -5 5 -7 10 -4 6 3 10 8 10 11 0 2 -4 4 -10 4 -5 0 -10
-5 -10 -11z"/>
<path d="M1800 1190 c0 -5 5 -10 11 -10 5 0 7 5 4 10 -3 6 -8 10 -11 10 -2 0
-4 -4 -4 -10z"/>
<path d="M5790 1189 c0 -5 9 -9 20 -9 11 0 23 0 27 -1 4 0 9 4 11 9 1 5 -11 9
-28 10 -16 0 -30 -4 -30 -9z"/>
<path d="M5955 1180 c-3 -5 1 -10 9 -10 9 0 16 5 16 10 0 6 -4 10 -9 10 -6 0
-13 -4 -16 -10z"/>
<path d="M6297 1176 c-4 -10 -5 -21 -2 -24 9 -9 17 6 13 25 -3 17 -4 17 -11
-1z"/>
<path d="M6112 1169 c2 -6 8 -10 13 -10 5 0 11 4 13 10 2 6 -4 11 -13 11 -9 0
-15 -5 -13 -11z"/>
<path d="M6193 1163 c9 -2 23 -2 30 0 6 3 -1 5 -18 5 -16 0 -22 -2 -12 -5z"/>
<path d="M1803 1110 c0 -25 2 -35 4 -22 2 12 2 32 0 45 -2 12 -4 2 -4 -23z"/>
<path d="M1928 1095 c-1 -30 0 -55 5 -55 4 0 7 25 7 55 0 71 -7 71 -12 0z"/>
<path d="M5793 1133 c8 -13 57 -23 57 -12 0 5 -6 9 -14 9 -8 0 -22 3 -32 7
-11 4 -15 3 -11 -4z"/>
<path d="M5975 1100 c3 -5 8 -10 11 -10 2 0 4 5 4 10 0 6 -5 10 -11 10 -5 0
-7 -4 -4 -10z"/>
<path d="M720 1055 c25 -21 62 -48 83 -62 20 -13 37 -28 37 -33 0 -6 7 -10 15
-10 27 0 5 25 -70 78 -90 64 -126 79 -65 27z"/>
<path d="M5818 1073 c7 -3 16 -2 19 1 4 3 -2 6 -13 5 -11 0 -14 -3 -6 -6z"/>
<path d="M5878 1063 c7 -3 16 -2 19 1 4 3 -2 6 -13 5 -11 0 -14 -3 -6 -6z"/>
<path d="M1793 1045 c0 -8 4 -15 9 -15 4 0 8 7 8 15 0 8 -4 15 -8 15 -5 0 -9
-7 -9 -15z"/>
<path d="M2657 1043 c-4 -3 -7 -11 -7 -17 0 -6 5 -5 12 2 6 6 9 14 7 17 -3 3
-9 2 -12 -2z"/>
<path d="M1335 1020 c-4 -6 7 -10 27 -9 27 0 30 2 13 9 -27 12 -33 12 -40 0z"/>
<path d="M3120 812 c-76 -92 -74 -101 4 -17 36 38 66 73 66 77 0 19 -19 3 -70
-60z"/>
<path d="M2838 843 c7 -3 16 -2 19 1 4 3 -2 6 -13 5 -11 0 -14 -3 -6 -6z"/>
<path d="M3315 782 c-22 -21 -57 -51 -77 -66 -39 -29 -48 -46 -25 -46 18 0 88
61 127 110 40 50 27 51 -25 2z"/>
<path d="M2 490 c0 -77 1 -81 10 -42 6 26 6 58 0 85 -9 38 -10 34 -10 -43z"/>
<path d="M6414 406 c-6 -15 19 -71 37 -81 6 -4 4 7 -5 23 -19 37 -20 59 -3 65
7 3 5 6 -6 6 -10 1 -20 -5 -23 -13z"/>
<path d="M5472 370 c0 -14 4 -36 8 -50 8 -24 8 -24 8 5 0 17 -3 39 -8 50 -8
18 -9 18 -8 -5z"/>
<path d="M5356 340 c29 -110 135 -248 241 -314 59 -36 64 -33 15 10 -47 40
-65 74 -98 184 -12 41 -23 70 -23 63 -1 -16 29 -135 40 -156 7 -12 6 -17 -4
-17 -25 0 -91 90 -152 205 -14 28 -23 39 -19 25z"/>
</g>
</svg>
